<svg width="58" height="58" viewBox="0 0 58 58" fill="none" xmlns="http://www.w3.org/2000/svg">
<path d="M46.2188 37.1562V9.0625C46.2188 7.06059 44.5957 5.4375 42.5938 5.4375H48.0312C50.0332 5.4375 51.6562 7.06059 51.6562 9.0625V37.1562C51.6562 38.6579 50.4392 39.875 48.9375 39.875C47.4358 39.875 46.2188 38.6579 46.2188 37.1562Z" fill="#353744"/>
<path d="M50.75 39.875H48.9375C48.6176 39.875 48.3158 39.8098 48.0312 39.7083V43.5C48.0312 46.1762 46.5695 48.5134 44.4062 49.7685V50.75C44.4062 52.7519 42.7832 54.375 40.7812 54.375C46.7779 54.375 51.6562 49.4967 51.6562 43.5V39.7083C51.3717 39.8098 51.0699 39.875 50.75 39.875Z" fill="#808080"/>
<path d="M48.0312 3.625C45.0279 3.625 42.5938 6.05919 42.5938 9.0625V21.75H44.4062V9.0625C44.4062 7.06059 46.0293 5.4375 48.0312 5.4375C50.0332 5.4375 51.6562 7.06059 51.6562 9.0625V37.1562C51.6562 38.6579 50.4392 39.875 48.9375 39.875H50.75C52.2517 39.875 53.4688 38.6579 53.4688 37.1562V9.0625C53.4688 6.05919 51.0346 3.625 48.0312 3.625Z" fill="#353744"/>
<path d="M31.7188 21.75V9.0625C31.7188 7.06059 30.0957 5.4375 28.0938 5.4375H33.5312C35.5332 5.4375 37.1562 7.06059 37.1562 9.0625V21.75H31.7188Z" fill="#353744"/>
<path d="M33.5312 3.625H28.0938C25.0904 3.625 22.6562 6.05919 22.6562 9.0625V21.75H28.0938V9.0625C28.0938 6.05919 30.5279 3.625 33.5312 3.625Z" fill="#55525B"/>
<path d="M33.5312 3.625C30.5279 3.625 28.0938 6.05919 28.0938 9.0625V21.75H29.9062V9.0625C29.9062 7.06059 31.5293 5.4375 33.5312 5.4375C35.5332 5.4375 37.1562 7.06059 37.1562 9.0625V21.75H38.9688V9.0625C38.9688 6.05919 36.5346 3.625 33.5312 3.625Z" fill="#353744"/>
<path d="M46.2188 37.1562V9.0625C46.2188 7.06059 44.5957 5.4375 42.5938 5.4375H48.0312C50.0332 5.4375 51.6562 7.06059 51.6562 9.0625V37.1562C51.6562 38.6579 50.4392 39.875 48.9375 39.875C47.4358 39.875 46.2188 38.6579 46.2188 37.1562Z" fill="#353744"/>
<path d="M48.0312 3.625H42.5938C39.5904 3.625 37.1562 6.05919 37.1562 9.0625V21.75H42.5938V9.0625C42.5938 6.05919 45.0279 3.625 48.0312 3.625Z" fill="#55525B"/>
<path d="M29.9062 7.25H20.8438C12.8352 7.25 6.34375 13.7415 6.34375 21.75V50.75C6.34375 52.7519 7.96684 54.375 9.96875 54.375H40.7812C42.7832 54.375 44.4062 52.7519 44.4062 50.75V21.75C44.4062 13.7415 37.9148 7.25 29.9062 7.25Z" fill="#5C76B2"/>
<path d="M20.8438 7.25C12.8352 7.25 6.34375 13.7415 6.34375 21.75V50.75C6.34375 52.7519 7.96684 54.375 9.96875 54.375H31.7188C33.7207 54.375 35.3438 52.7519 35.3438 50.75V21.75C35.3438 13.7415 28.8523 7.25 20.8438 7.25Z" fill="#6FA4D8"/>
<path d="M28.0938 27.1875H8.15625C6.15434 27.1875 4.53125 28.8106 4.53125 30.8125V47.125C4.53125 49.1269 6.15434 50.75 8.15625 50.75H28.0938C30.0957 50.75 31.7188 49.1269 31.7188 47.125V30.8125C31.7188 28.8106 30.0957 27.1875 28.0938 27.1875Z" fill="#F68820"/>
<path d="M22.6562 27.1875H8.15625C6.15434 27.1875 4.53125 28.8106 4.53125 30.8125V47.125C4.53125 49.1269 6.15434 50.75 8.15625 50.75H22.6562C24.6582 50.75 26.2812 49.1269 26.2812 47.125V30.8125C26.2812 28.8106 24.6582 27.1875 22.6562 27.1875Z" fill="#FBBE18"/>
<path d="M4.53125 32.625H26.2812V34.4375H4.53125V32.625Z" fill="#F68820"/>
<path d="M26.7344 18.125H14.5C13.9998 18.125 13.5938 17.719 13.5938 17.2188C13.5938 16.7185 13.9998 16.3125 14.5 16.3125H26.7344C27.2346 16.3125 27.6406 16.7185 27.6406 17.2188C27.6406 17.719 27.2346 18.125 26.7344 18.125Z" fill="#DBDEE3"/>
<path d="M38.9688 21.75V24.4688C38.9688 24.969 39.3748 25.375 39.875 25.375C40.3752 25.375 40.7812 24.969 40.7812 24.4688V21.75C40.7812 13.7415 34.2898 7.25 26.2812 7.25H24.4688C32.4773 7.25 38.9688 13.7415 38.9688 21.75Z" fill="#55525B"/>
</svg>
