<svg width="76" height="76" viewBox="0 0 76 76" fill="none" xmlns="http://www.w3.org/2000/svg">
<g clip-path="url(#clip0)">
<path d="M75.5197 11.0535C75.1036 10.5336 74.4738 10.2309 73.8077 10.2309H15.4601L13.8284 3.16082C13.5988 2.16614 12.7131 1.46151 11.6923 1.46151H2.19227C0.981617 1.46151 0 2.44313 0 3.65393C0 4.86474 0.981617 5.8462 2.19227 5.8462H9.94828L21.0235 53.8392C21.253 54.8338 22.1389 55.5385 23.1597 55.5385H67.0845C68.2953 55.5385 69.2768 54.5569 69.2768 53.3462C69.2768 52.1354 68.2952 51.1539 67.0845 51.1539H24.9038L23.2176 43.8462H67.2309C68.2563 43.8462 69.1447 43.1355 69.3697 42.1352L75.9466 12.9044C76.0928 12.2545 75.9357 11.5737 75.5197 11.0535Z" fill="#6FA4D8"/>
<path d="M32.1538 58.4615C27.7214 58.4615 24.1153 62.0675 24.1153 66.5C24.1153 70.9325 27.7213 74.5385 32.1538 74.5385C36.5861 74.5385 40.1923 70.9325 40.1923 66.5C40.1923 62.0675 36.5863 58.4615 32.1538 58.4615Z" fill="#6FA4D8"/>
<path d="M58.4615 58.4615C54.0292 58.4615 50.423 62.0675 50.423 66.5C50.423 70.9325 54.029 74.5385 58.4615 74.5385C62.8939 74.5385 66.5 70.9325 66.5 66.5C66.5 62.0675 62.894 58.4615 58.4615 58.4615Z" fill="#6FA4D8"/>
</g>
<defs>
<clipPath id="clip0">
<rect width="76" height="76" fill="white"/>
</clipPath>
</defs>
</svg>
