<svg width="96" height="96" viewBox="0 0 96 96" fill="none" xmlns="http://www.w3.org/2000/svg">
<path d="M70.5368 93.2167H25.4633C23.463 93.2167 21.8411 91.5952 21.8411 89.5946V47.3389C21.8411 45.3386 23.4626 43.7167 25.4633 43.7167H70.5364C72.5366 43.7167 74.1585 45.3382 74.1585 47.3389V89.595C74.1585 91.5952 72.537 93.2167 70.5368 93.2167Z" fill="#4D4E59"/>
<path d="M39.3188 43.7167V59.8147C41.4896 59.8147 41.4896 58.0039 43.6605 58.0039C45.8314 58.0039 45.8314 59.8147 48.0023 59.8147C50.1716 59.8147 50.1716 58.0039 52.341 58.0039C54.5111 58.0039 54.5111 59.8147 56.6813 59.8147V43.7167H39.3188Z" fill="#DBDEE3"/>
<path d="M70.5368 93.9667H25.4632C23.0527 93.9667 21.0915 92.0059 21.0915 89.595V47.3389C21.0915 44.928 23.0527 42.9667 25.4632 42.9667H70.5364C72.9469 42.9667 74.9081 44.928 74.9081 47.3389V89.595C74.9085 92.0059 72.9473 93.9667 70.5368 93.9667ZM25.4632 44.4667C23.8796 44.4667 22.5915 45.7552 22.5915 47.3389V89.595C22.5915 91.1786 23.88 92.4667 25.4632 92.4667H70.5364C72.12 92.4667 73.4081 91.1782 73.4081 89.595V47.3389C73.4081 45.7549 72.1196 44.4667 70.5364 44.4667H25.4632Z" fill="#42434D"/>
<path d="M68.7904 85.017H62.3797C61.7122 85.017 61.1707 84.4759 61.1707 83.808C61.1707 83.1405 61.7119 82.599 62.3797 82.599H68.7904C69.4579 82.599 69.9994 83.1401 69.9994 83.808C69.9994 84.4759 69.4582 85.017 68.7904 85.017Z" fill="#D1D4D1"/>
<path d="M68.7904 88.2274H62.3797C61.7122 88.2274 61.1707 87.6863 61.1707 87.0184C61.1707 86.3509 61.7119 85.8094 62.3797 85.8094H68.7904C69.4579 85.8094 69.9994 86.3505 69.9994 87.0184C69.9994 87.6863 69.4582 88.2274 68.7904 88.2274Z" fill="#D1D4D1"/>
<path d="M38.5766 88.5457H27.5096C26.676 88.5457 26.0006 87.87 26.0006 87.0367V82.4089C26.0006 81.5752 26.6764 80.8999 27.5096 80.8999H38.5766C39.4102 80.8999 40.0856 81.5756 40.0856 82.4089V87.0367C40.086 87.87 39.4102 88.5457 38.5766 88.5457Z" fill="#D1D4D1"/>
<path d="M12.1211 88.0477H3.60938C3.27263 88.0477 3 87.7747 3 87.4384V61.1464C3 60.8096 3.273 60.537 3.60938 60.537H12.1211C13.3706 60.537 14.3839 61.5499 14.3839 62.7997V85.7854C14.3839 87.0345 13.3706 88.0477 12.1211 88.0477Z" fill="#42434D"/>
<path d="M16.4681 62.7904H14.3835C14.3835 62.7934 14.3839 62.7964 14.3839 62.7994V85.3301H16.4681C17.1334 85.3301 17.673 84.7909 17.673 84.1252V63.9949C17.673 63.3296 17.1334 62.7904 16.4681 62.7904Z" fill="#D1D4D1"/>
<path d="M60.7031 71.364C60.7031 69.7582 59.4015 68.4562 57.7954 68.4562H54.2561C55.7633 68.3479 56.9531 67.0939 56.9531 65.5594C56.9531 63.9536 55.6515 62.6516 54.0454 62.6516H51.2498H38.5688H35.8279L37.7081 61.1025C39.0409 60.0045 39.3761 58.0399 38.3663 56.6389C37.2596 55.1036 35.1075 54.843 33.6701 56.0273L25.0013 63.1702L25.0095 63.18C24.4583 63.5591 24.0394 64.1171 23.8376 64.7704C23.7424 65.0786 23.4416 65.277 23.1191 65.277H17.673V83.277H23.1319C23.4525 83.277 23.7458 83.478 23.8403 83.7844C24.219 85.0106 25.3594 85.902 26.7101 85.902H37.0688H50.9048H51.2498V85.8795C52.6928 85.7085 53.8121 84.483 53.8121 82.9942C53.8121 81.5055 52.6924 80.28 51.2498 80.109V80.0865H55.5454C57.1511 80.0865 58.4531 78.7849 58.4531 77.1791C58.4531 75.5734 57.1515 74.2717 55.5454 74.2717H57.7954C59.4015 74.2714 60.7031 72.9697 60.7031 71.364Z" fill="#DBDEE3"/>
<path d="M12.1211 88.7977H3.60938C2.85975 88.7977 2.25 88.188 2.25 87.4384V61.1464C2.25 60.3967 2.85975 59.787 3.60938 59.787H12.1211C13.7824 59.787 15.1339 61.1385 15.1339 62.7994V85.785C15.1339 87.4459 13.7824 88.7977 12.1211 88.7977ZM3.75 87.2977H12.1211C12.9551 87.2977 13.6339 86.619 13.6339 85.785V62.7994C13.6339 61.9654 12.9551 61.287 12.1211 61.287H3.75V87.2977Z" fill="#42434D"/>
<path d="M16.4681 86.0801H14.3839C13.9699 86.0801 13.6339 85.7441 13.6339 85.3301V62.8144C13.6286 62.619 13.6995 62.4274 13.8326 62.283C13.9744 62.1296 14.1743 62.0404 14.3831 62.0404H16.4681C17.5463 62.0404 18.423 62.9175 18.423 63.9953V84.126C18.423 85.2034 17.5463 86.0801 16.4681 86.0801ZM15.1339 84.5801H16.4681C16.719 84.5801 16.923 84.3761 16.923 84.1256V63.9949C16.923 63.744 16.719 63.54 16.4681 63.54H15.1339V84.5801Z" fill="#42434D"/>
<path d="M75.09 11.6749L66.5314 4.45239C64.9826 3.14551 62.9479 2.56464 60.9428 2.85714L43.9751 5.33139C42.5182 5.54401 41.4375 6.79314 41.4375 8.26576V27.7823L59.6295 33.5775L75.09 31.7329H81.0086V11.6749H75.09Z" fill="#DBDEE3"/>
<path d="M59.6295 34.3275C59.5522 34.3275 59.4757 34.3159 59.4019 34.2919L41.2102 28.4966C40.899 28.3976 40.6879 28.1089 40.6879 27.7822V8.26574C40.6879 6.43424 42.0547 4.85362 43.8671 4.58887L60.8347 2.11462C63.0514 1.79324 65.3036 2.43487 67.0151 3.87899L75.3645 10.9249H81.009C81.423 10.9249 81.759 11.2609 81.759 11.6749V31.7325C81.759 32.1465 81.423 32.4825 81.009 32.4825H75.135L59.7184 34.3219C59.6887 34.3256 59.6591 34.3275 59.6295 34.3275ZM42.1875 27.234L59.7019 32.8136L75.0011 30.9881C75.0307 30.9847 75.0604 30.9829 75.09 30.9829H80.2586V12.4252H75.09C74.913 12.4252 74.7416 12.3626 74.6062 12.2482L66.0476 5.02537C64.6639 3.85799 62.8425 3.33824 61.0507 3.59924L44.0831 6.07349C43.0024 6.23099 42.1875 7.17374 42.1875 8.26574V27.234Z" fill="#42434D"/>
<path d="M63.498 34.662H24.1991C22.8968 34.662 21.8411 33.6064 21.8411 32.304V12.6548C21.8411 11.3524 22.8968 10.2968 24.1991 10.2968H63.498C64.8004 10.2968 65.856 11.3524 65.856 12.6548V32.304C65.856 33.606 64.8004 34.662 63.498 34.662Z" fill="#42434D"/>
<path d="M43.8487 31.2626C48.6996 31.2626 52.632 27.3302 52.632 22.4794C52.632 17.6285 48.6996 13.6961 43.8487 13.6961C38.9979 13.6961 35.0655 17.6285 35.0655 22.4794C35.0655 27.3302 38.9979 31.2626 43.8487 31.2626Z" fill="#D1D4D1"/>
<path d="M43.2244 27.5479C41.8496 27.3405 40.8536 26.4889 40.7408 25.0976C40.7291 24.9529 40.8465 24.8291 40.992 24.8291H42.0799C42.204 24.8291 42.3071 24.9206 42.3278 25.0432C42.4103 25.5274 42.6521 25.9057 43.0736 26.1056C43.2416 26.1855 43.4366 26.0655 43.4366 25.8795V23.2519C43.4366 23.1394 43.3616 23.0407 43.2533 23.01C42.0173 22.6605 40.7303 22.2037 40.7303 20.2732C40.7303 18.735 41.7424 17.6561 43.2266 17.4255C43.3478 17.4067 43.4366 17.301 43.4366 17.1784V16.4715C43.4366 16.3327 43.5491 16.2202 43.6879 16.2202H44.0231C44.1619 16.2202 44.2744 16.3327 44.2744 16.4715V17.163C44.2744 17.2856 44.3629 17.3921 44.4844 17.4101C45.7646 17.6032 46.6496 18.4009 46.8473 19.7719C46.869 19.9226 46.7498 20.0576 46.5975 20.0576H45.5201C45.3998 20.0576 45.3 19.9714 45.2738 19.854C45.1931 19.4925 44.9865 19.1651 44.6678 18.9559C44.499 18.8452 44.2744 18.9619 44.2744 19.164V21.6907C44.2744 21.8044 44.3505 21.9034 44.4604 21.9334C45.6949 22.2694 46.9684 22.7134 46.9684 24.6427C46.9684 25.9796 46.0913 27.2771 44.4848 27.5332C44.3636 27.5527 44.2748 27.6577 44.2748 27.7804V28.4876C44.2748 28.6264 44.1623 28.7389 44.0235 28.7389H43.6875C43.5488 28.7389 43.4363 28.6264 43.4363 28.4876V27.7957C43.4363 27.672 43.3463 27.5662 43.2244 27.5479ZM43.4363 21.2629V19.0534C43.4363 18.8835 43.269 18.7575 43.1089 18.8137C42.5779 19.0001 42.225 19.4524 42.225 20.1866C42.225 20.8665 42.5681 21.2404 43.0721 21.4879C43.2398 21.5704 43.4363 21.45 43.4363 21.2629ZM44.274 23.6797V25.8862C44.274 26.0689 44.4619 26.1885 44.6291 26.1157C45.18 25.8761 45.4856 25.3522 45.4856 24.7282C45.4856 24.0592 45.1418 23.697 44.637 23.4536C44.469 23.373 44.274 23.4934 44.274 23.6797Z" fill="#42434D"/>
<path d="M63.4984 35.412H24.1995C22.4857 35.412 21.0915 34.0178 21.0915 32.304V12.6544C21.0915 10.941 22.4857 9.54675 24.1995 9.54675H63.498C65.2117 9.54675 66.606 10.941 66.606 12.6544V32.3036C66.606 34.0178 65.2117 35.412 63.4984 35.412ZM24.1995 11.0468C23.313 11.0468 22.5915 11.7679 22.5915 12.6544V32.3036C22.5915 33.1901 23.3126 33.9116 24.1995 33.9116H63.4984C64.3849 33.9116 65.1064 33.1901 65.1064 32.3036V12.6544C65.1064 11.7679 64.3849 11.0468 63.4984 11.0468H24.1995Z" fill="#42434D"/>
<path d="M43.8487 32.0126C38.592 32.0126 34.3155 27.7361 34.3155 22.479C34.3155 17.2222 38.592 12.9457 43.8487 12.9457C49.1055 12.9457 53.382 17.2222 53.382 22.479C53.382 27.7361 49.1055 32.0126 43.8487 32.0126ZM43.8487 14.4457C39.4189 14.4457 35.8155 18.0491 35.8155 22.479C35.8155 26.9089 39.4192 30.5126 43.8487 30.5126C48.2782 30.5126 51.882 26.9089 51.882 22.479C51.882 18.0491 48.2782 14.4457 43.8487 14.4457Z" fill="#42434D"/>
<path d="M84.0098 35.277H92.3993C92.7311 35.277 93 35.0081 93 34.6762V8.76225C93 8.43037 92.7311 8.1615 92.3993 8.1615H84.0098C82.7779 8.1615 81.7796 9.16012 81.7796 10.3916V33.0469C81.7796 34.2787 82.7783 35.277 84.0098 35.277Z" fill="#42434D"/>
<path d="M65.8492 22.0875L49.3035 22.8487C48.9169 22.8101 48.5377 22.8296 48.1751 22.9009H48.1729L48.1732 22.9012C46.5577 23.2192 45.267 24.5572 45.0859 26.2804C44.8631 28.3976 46.3991 30.2944 48.5164 30.5171L63.045 32.3741C64.908 32.6122 66.7924 32.6336 68.6606 32.4379L72.927 31.9909L73.9526 22.0875H65.8492Z" fill="#DBDEE3"/>
<path d="M66.1286 33.3202C65.0659 33.3202 64.0035 33.2524 62.9501 33.1177L48.4215 31.2611C47.2151 31.1344 46.1152 30.537 45.3412 29.5815C44.5672 28.626 44.2117 27.4256 44.3404 26.2024C44.553 24.1804 46.0354 22.5581 48.0285 22.1655C48.0367 22.1636 48.045 22.1621 48.0532 22.161C48.4687 22.0811 48.8951 22.0597 49.3219 22.0976L65.8151 21.3386C66.2287 21.3232 66.5797 21.6397 66.5989 22.0534C66.618 22.467 66.2977 22.818 65.8841 22.8371L49.3384 23.5984C49.3027 23.5995 49.2652 23.5991 49.2289 23.5954C48.9221 23.5642 48.6169 23.5789 48.3202 23.6366C48.3127 23.6381 48.3052 23.6396 48.2977 23.6411C46.9642 23.913 45.9746 25.0024 45.8321 26.3587C45.7455 27.1834 45.9851 27.9926 46.5067 28.6372C47.0284 29.2819 47.7701 29.6842 48.5947 29.7709L63.1402 31.6297C64.9425 31.8596 66.7732 31.8806 68.5826 31.6916L72.849 31.2446C73.2589 31.2037 73.6301 31.5004 73.6732 31.9125C73.7164 32.3242 73.4175 32.6932 73.0054 32.7364L68.739 33.1834C67.872 33.2745 67.0001 33.3202 66.1286 33.3202Z" fill="#42434D"/>
<path d="M81.7796 10.3916C81.7796 10.3886 81.78 10.3856 81.78 10.3826H79.7254C79.0695 10.3826 78.5378 10.9144 78.5378 11.5703V31.4115C78.5378 32.0674 79.0695 32.5991 79.7254 32.5991H81.7796V10.3916Z" fill="#D1D4D1"/>
<path d="M92.3993 36.027H84.0098C82.3665 36.027 81.0296 34.6901 81.0296 33.0469V10.3916C81.0296 8.74837 82.3665 7.4115 84.0098 7.4115H92.3993C93.144 7.4115 93.75 8.01712 93.75 8.76225V34.6762C93.75 35.421 93.144 36.027 92.3993 36.027ZM84.0098 8.9115C83.1934 8.9115 82.5296 9.57562 82.5296 10.3916V33.0469C82.5296 33.8632 83.1938 34.527 84.0098 34.527H92.25V8.9115H84.0098Z" fill="#42434D"/>
<path d="M81.7796 33.3487H79.7253C78.657 33.3487 77.7877 32.4795 77.7877 31.4111V11.5703C77.7877 10.5019 78.657 9.63263 79.7253 9.63263H81.78C82.194 9.63263 82.53 9.96863 82.53 10.3826C82.53 10.3913 82.53 10.4006 82.5296 10.4104V32.5987C82.5296 33.0127 82.194 33.3487 81.7796 33.3487ZM79.7253 11.1326C79.4842 11.1326 79.2877 11.3288 79.2877 11.5703V31.4111C79.2877 31.6526 79.4838 31.8487 79.7253 31.8487H81.0296V11.1326H79.7253Z" fill="#42434D"/>
<path d="M51.2501 86.6516H26.7101C25.0537 86.6516 23.6122 85.5881 23.124 84.0049L17.6734 84.0266C17.2594 84.0266 16.9234 83.6906 16.9234 83.2766V65.2766C16.9234 64.8626 17.2594 64.5266 17.6734 64.5266H23.1195C23.3542 63.7935 23.8267 63.1267 24.4597 62.652C24.48 62.6306 24.5017 62.6107 24.5246 62.5912L33.1935 55.4482C34.0417 54.7492 35.1536 54.4312 36.2445 54.57C37.3507 54.7132 38.3205 55.2919 38.9749 56.2005C40.1996 57.8996 39.8527 60.3075 38.1855 61.6815L37.9181 61.9016H54.0457C56.0625 61.9016 57.7031 63.5426 57.7031 65.5594C57.7031 66.3566 57.4425 67.1002 57.0004 67.7062H57.7957C59.8125 67.7062 61.4531 69.3472 61.4531 71.364C61.4531 73.1561 60.1571 74.6516 58.4531 74.9621C58.9237 75.5779 59.2031 76.3462 59.2031 77.1791C59.2031 79.1959 57.5625 80.8369 55.5457 80.8369H53.8579C54.3026 81.4444 54.5629 82.1921 54.5629 82.9946C54.5629 84.7841 53.2687 86.3014 51.5227 86.5976C51.438 86.6325 51.3461 86.6516 51.2501 86.6516ZM18.423 82.5266H23.1319C23.7926 82.5266 24.3656 82.9425 24.5569 83.5624C24.8505 84.513 25.7156 85.1516 26.7101 85.1516H51.0697C51.0997 85.1437 51.1305 85.1381 51.162 85.1344C52.2457 85.0061 53.0625 84.0862 53.0625 82.9942C53.0625 81.9022 52.2454 80.982 51.1616 80.8537C50.7844 80.8091 50.4997 80.4889 50.4997 80.109C50.4997 79.695 50.8357 79.3365 51.2497 79.3365H55.5454C56.7349 79.3365 57.7027 78.3686 57.7027 77.1787C57.7027 75.9889 56.7349 75.021 55.5454 75.021C55.1314 75.021 54.7954 74.685 54.7954 74.271C54.7954 73.857 55.1314 73.521 55.5454 73.521H57.7954C58.9849 73.521 59.9527 72.5531 59.9527 71.3636C59.9527 70.1737 58.9849 69.2059 57.7954 69.2059H54.2561C53.8522 69.2059 53.5211 68.886 53.5065 68.4829C53.4919 68.0794 53.7994 67.7366 54.2021 67.7077C55.3241 67.6271 56.2027 66.6836 56.2027 65.5594C56.2027 64.3695 55.2349 63.4016 54.0454 63.4016H35.8279C35.5114 63.4016 35.229 63.2029 35.1221 62.9051C35.0152 62.607 35.1067 62.274 35.3509 62.0726L37.2311 60.5235C38.2901 59.6509 38.5215 58.1374 37.7576 57.0772C37.3481 56.5091 36.7421 56.1472 36.0517 56.0576C35.3602 55.9695 34.6845 56.163 34.1467 56.6062L25.5776 63.6667C25.5364 63.7166 25.488 63.7609 25.434 63.798C25.0151 64.0864 24.7027 64.5097 24.5535 64.992C24.3652 65.6014 23.775 66.027 23.1187 66.027H18.423V82.5266Z" fill="#42434D"/>
<path d="M50.9051 86.6516H37.0691C36.6551 86.6516 36.3191 86.3156 36.3191 85.9016C36.3191 85.4876 36.6551 85.1516 37.0691 85.1516H50.9051C52.0946 85.1516 53.0625 84.1837 53.0625 82.9942C53.0625 81.8044 52.0946 80.8365 50.9051 80.8365H40.086C39.672 80.8365 39.336 80.5005 39.336 80.0865C39.336 79.6725 39.672 79.3365 40.086 79.3365H50.9051C52.9219 79.3365 54.5625 80.9775 54.5625 82.9942C54.5625 85.011 52.9219 86.6516 50.9051 86.6516Z" fill="#42434D"/>
<path d="M55.5457 80.8365H40.086C39.672 80.8365 39.336 80.5005 39.336 80.0865C39.336 79.6725 39.672 79.3365 40.086 79.3365H55.5457C56.7352 79.3365 57.7031 78.3686 57.7031 77.1787C57.7031 75.9889 56.7352 75.021 55.5457 75.021H40.086C39.672 75.021 39.336 74.685 39.336 74.271C39.336 73.857 39.672 73.521 40.086 73.521H55.5457C57.5625 73.521 59.2031 75.162 59.2031 77.1787C59.2031 79.1955 57.5625 80.8365 55.5457 80.8365Z" fill="#42434D"/>
<path d="M57.7957 75.0214H40.086C39.672 75.0214 39.336 74.6854 39.336 74.2714C39.336 73.8574 39.672 73.5214 40.086 73.5214H57.7957C58.9852 73.5214 59.9531 72.5535 59.9531 71.364C59.9531 70.1741 58.9852 69.2063 57.7957 69.2063L40.0864 69.2168C40.0864 69.2168 40.0864 69.2168 40.086 69.2168C39.672 69.2168 39.336 68.8811 39.336 68.4671C39.336 68.0531 39.6712 67.7171 40.0856 67.7168L57.7954 67.7063C59.8125 67.7063 61.4531 69.3473 61.4531 71.364C61.4531 73.3808 59.8125 75.0214 57.7957 75.0214Z" fill="#42434D"/>
</svg>
