<svg width="34" height="52" viewBox="0 0 34 52" fill="none" xmlns="http://www.w3.org/2000/svg">
<path d="M33.5694 44.301C33.5694 44.301 33.4083 44.7778 31.9352 45.6326C31.8655 45.6751 31.7925 45.7176 31.7132 45.7594C31.4206 45.9259 31.2785 46.2702 31.3689 46.5946L31.4507 46.9072C31.5351 47.2267 31.391 47.5625 31.1013 47.7214C30.6829 47.9461 30.2154 48.064 29.7405 48.0645C29.6948 48.0645 29.6523 48.0645 29.6066 48.0645L29.2026 48.046L28.5311 48.0156C28.3206 48.0052 28.1122 48.0616 27.9356 48.1767C27.654 48.3597 27.4811 48.6703 27.474 49.0061C27.4657 49.4096 27.1362 49.7322 26.7327 49.7321C26.7022 49.7321 26.6693 49.7321 26.6382 49.7258L25.5203 49.5863L25.4258 49.5774C25.065 49.5484 24.7037 49.6265 24.3871 49.8019C24.259 49.8691 24.1413 49.9544 24.0377 50.0555C23.7252 50.3718 23.4621 50.7333 23.2571 51.1279C23.1629 51.3207 23.0232 51.4876 22.85 51.6142C22.4922 51.8652 22.0657 51.9998 21.6287 51.9998H19.4726C19.087 51.9998 18.7072 51.9813 18.3242 51.9484C17.9691 51.9179 17.4365 51.8787 16.7871 51.857C16.134 51.8786 15.6025 51.9204 15.2467 51.9484C14.8662 51.982 14.4858 51.9998 14.1015 51.9998H11.9264C11.1813 51.973 10.5192 51.517 10.2282 50.8305C10.0345 50.3265 9.6772 49.9022 9.21354 49.6256C9.03661 49.5384 8.83969 49.4997 8.64277 49.5134C8.64277 49.5134 8.42721 49.5406 8.14752 49.5768C7.6187 49.6402 6.85961 49.7346 6.83806 49.7346C6.43448 49.7347 6.10507 49.4119 6.09678 49.0086C6.08394 48.4484 5.61945 48.0046 5.05924 48.0174C5.05272 48.0175 5.04619 48.0178 5.03967 48.0181L4.3681 48.0485L3.96732 48.067C3.92164 48.067 3.87917 48.067 3.83349 48.067C3.35501 48.0657 2.88431 47.9457 2.46374 47.7176C2.17608 47.5602 2.03406 47.2259 2.12066 46.9097L2.2056 46.597C2.29323 46.2723 2.14935 45.9294 1.8562 45.7644L1.63421 45.6376C0.16108 44.7809 0 44.3009 0 44.3009C1.74784 37.0054 4.40923 29.9595 7.92097 23.3302C8.39043 22.4575 8.94504 21.6333 9.57672 20.8698L10.1475 20.1805C10.8117 19.3698 11.3493 18.4633 11.7423 17.4918L12.277 16.1493C8.47662 11.34 9.11078 5.37664 9.11078 5.37664L8.57938 1.41522L9.34033 0.291497L10.8318 0.0517941L11.1623 0C11.8725 3.10474 14.9652 5.04578 18.0699 4.33558C20.2273 3.84208 21.912 2.15743 22.4055 0L22.7366 0.0513797L24.228 0.291083L24.989 1.41481L24.457 5.37684C24.457 5.37684 25.0911 11.3377 21.2914 16.1489L21.8291 17.4914C22.0782 18.1139 22.3885 18.7103 22.7556 19.2714C22.9617 19.5861 23.1848 19.8892 23.424 20.1795L23.9946 20.8688C24.6242 21.6339 25.1788 22.4578 25.6504 23.3292C29.1599 29.9595 31.8205 37.0057 33.5694 44.301Z" fill="#EF5261"/>
<path d="M31.9353 45.6346C31.8655 45.6771 31.7926 45.7196 31.7133 45.7614C31.4215 45.9277 31.2797 46.2709 31.3689 46.5947L31.4508 46.9073C31.5352 47.2268 31.3911 47.5626 31.1014 47.7215C30.683 47.9462 30.2155 48.0641 29.7405 48.0646C29.6949 48.0646 29.6524 48.0646 29.6067 48.0646L29.2027 48.0462L24.7639 26.3805L31.9353 45.6346Z" fill="#DA364C"/>
<path d="M27.9345 48.1743C27.6528 48.3573 27.4799 48.6679 27.4728 49.0037C27.4645 49.4072 27.135 49.7299 26.7315 49.7297C26.7011 49.7297 26.6681 49.7297 26.637 49.7234L25.5191 49.5839L25.4246 49.575L22.7854 24.4424L27.9345 48.1743Z" fill="#DA364C"/>
<path d="M24.3859 49.7996C24.2577 49.8668 24.1401 49.9522 24.0365 50.0533C23.724 50.3695 23.4608 50.7311 23.2558 51.1256C23.1617 51.3184 23.0219 51.4854 22.8487 51.612C22.4909 51.863 22.0645 51.9975 21.6274 51.9975H20.0478L20.4669 25.6177L24.3859 49.7996Z" fill="#DA364C"/>
<path d="M8.81099 26.3799L4.36696 48.0437L3.96617 48.0621C3.92049 48.0621 3.87802 48.0621 3.83234 48.0621C3.35386 48.0609 2.88316 47.9408 2.46259 47.7127C2.17493 47.5554 2.03291 47.2211 2.11951 46.9048L2.20445 46.5922C2.29208 46.2675 2.1482 45.9246 1.85505 45.7596L1.63306 45.6328L8.81099 26.3799Z" fill="#DA364C"/>
<path d="M10.7857 24.4395L8.14584 49.5714C7.61702 49.6348 6.85793 49.7292 6.83638 49.7292C6.43281 49.7293 6.10339 49.4067 6.09511 49.0032C6.08972 48.669 5.91766 48.3597 5.63663 48.1788L10.7857 24.4395Z" fill="#DA364C"/>
<path d="M13.5201 51.9988H11.9253C11.1802 51.9719 10.518 51.5159 10.227 50.8295C10.0333 50.3255 9.67606 49.9012 9.2124 49.6246L13.1009 25.619L13.5201 51.9988Z" fill="#DA364C"/>
<path d="M27.7399 4.61777C26.6873 5.02746 25.5812 5.28374 24.4557 5.37873C24.0612 3.71303 23.9839 1.98787 24.228 0.293586C25.4965 -0.179812 26.9086 0.464713 27.382 1.73315C27.4686 1.96529 27.5195 2.20914 27.5331 2.45651L27.7399 4.61777Z" fill="#DA364C"/>
<path d="M5.82932 4.61777C6.88188 5.02746 7.98799 5.28374 9.11348 5.37873C9.50804 3.71303 9.58532 1.98787 9.34116 0.293586C8.07262 -0.179812 6.66061 0.464713 6.18711 1.73315C6.10051 1.96529 6.04954 2.20914 6.03597 2.45651L5.82932 4.61777Z" fill="#DA364C"/>
<path d="M22.8127 0.0633959C22.2677 2.92978 19.7235 4.9773 16.8069 4.89671C11.4117 4.89671 10.7858 0.127413 10.7858 0.0576986L11.1623 0C11.8725 3.10474 14.9652 5.04578 18.0699 4.33558C20.2273 3.84208 21.912 2.15743 22.4055 0L22.8127 0.0633959Z" fill="#DA364C"/>
</svg>
