<svg width="60" height="60" viewBox="0 0 86 86" fill="none" xmlns="http://www.w3.org/2000/svg">
<path d="M86 43C86 66.7486 66.7486 86 43 86C19.2514 86 0 66.7486 0 43C0 19.2514 19.2514 0 43 0C66.7486 0 86 19.2514 86 43Z" fill="#4A7AFF"/>
<path d="M44.887 85.956C67.7596 84.9686 86 66.1154 86 43C86 42.8327 85.9954 42.666 85.9934 42.4987L56.1455 12.6501L24.2315 46.0077L41.9633 63.7395L33.7873 74.8563L44.887 85.956Z" fill="#0053BF"/>
<path d="M56.1455 12.6502V22.3871C56.1455 22.3871 44.9664 20.7645 44.9664 27.9767V35.1888H55.0636L53.8018 46.1875H44.9664V74.8563H33.7873V46.1875L24.2308 46.0071V35.1888H33.6069V26.8947C33.6069 26.8947 32.9881 14.5562 45.1469 12.29C50.1958 11.3484 56.1455 12.6502 56.1455 12.6502Z" fill="white"/>
<path d="M56.1455 22.3871V12.6502C56.1455 12.6502 50.1958 11.3484 45.1469 12.29C44.3582 12.4369 43.6246 12.6272 42.9403 12.8523V74.8563H44.9664V46.1875H53.8012L55.0636 35.1888H44.9664C44.9664 35.1888 44.9664 35.1888 44.9664 27.9767C44.9664 20.7645 56.1455 22.3871 56.1455 22.3871Z" fill="#DCE1EB"/>
</svg>
