<svg width="210" height="178" viewBox="0 0 210 178" fill="none" xmlns="http://www.w3.org/2000/svg">
<path d="M186.777 53.3936C183.281 67.5324 169.474 104.841 119.26 120.322C119.26 120.322 126.285 125.236 136.363 127.87C138.689 128.48 139.288 131.544 137.364 132.978C133.085 136.166 126.049 140.866 116.523 145.428C87.7418 159.213 52.3671 147.457 39.0848 118.245C26.2052 89.9197 38.7811 56.3511 67.0798 43.5436C91.6012 32.4457 109.803 38.5895 132.977 33.6391C134.887 33.2309 136.627 34.8613 136.413 36.81C135.93 41.2309 134.564 48.4936 130.709 54.5853C130.709 54.5853 155.831 60.8922 182.867 50.0404C185.051 49.1633 187.345 51.1003 186.777 53.3936Z" fill="#F42121"/>
<path d="M103.276 122.867C95.2681 121.531 91.51 116.945 91.51 116.945C117.674 107.649 131.784 89.5816 136.406 82.679C137.061 81.7018 136.186 80.4075 135.036 80.6531C116.543 84.6244 102.755 79.0553 102.755 79.0553C105.01 74.1917 105.153 70.4743 105.024 68.6321C104.973 67.9082 104.334 67.3988 103.613 67.4474C91.0532 68.2806 79.3197 64.4229 66.1926 68.278C46.8766 73.95 35.668 95.0118 42.7234 113.984C49.8397 133.121 71.4245 141.97 89.6035 133.743C96.9164 130.433 101.497 127.182 103.929 125.181C104.808 124.458 104.397 123.053 103.276 122.867Z" fill="#FF5207"/>
<path d="M93.8156 94.5121C94.5982 93.6976 94.3083 92.3571 93.2331 92.0045C86.8066 89.9003 68.4484 84.7375 56.739 90.037C47.4701 94.2319 43.3754 105.19 47.5944 114.512C51.8128 123.832 62.7476 127.988 72.0165 123.793C80.8294 119.805 83.1235 105.638 93.8156 94.5121Z" fill="#F5FA08"/>
<path d="M38.9095 117.795C36.8297 112.108 24.1916 60.8289 90.7631 50.3537C115.603 46.446 136.213 38.4028 136.213 38.4028C136.29 37.844 136.359 37.304 136.413 36.8101C136.627 34.8613 134.887 33.231 132.977 33.6392C109.804 38.589 91.6013 32.4458 67.0799 43.5437C38.9294 56.2841 26.4168 89.4255 38.9095 117.795Z" fill="#EC1818"/>
</svg>
