<svg width="70" height="60" viewBox="0 0 70 60" fill="none" xmlns="http://www.w3.org/2000/svg">
<path d="M65.0395 4.84396C61.7318 1.6142 57.1621 0 51.3281 0C49.7136 0 48.0659 0.279932 46.3865 0.839524C44.7065 1.39953 43.1436 2.15504 41.6997 3.10553C40.2537 4.05574 39.0111 4.94808 37.9687 5.78117C36.9275 6.61454 35.9376 7.50017 35.0003 8.43738C34.0625 7.50017 33.0729 6.61454 32.0316 5.78117C30.9895 4.94808 29.7464 4.05629 28.3008 3.10553C26.8554 2.15463 25.2928 1.39966 23.6132 0.839524C21.9337 0.280069 20.2863 0 18.6718 0C12.8382 0 8.26815 1.61461 4.96095 4.84396C1.65374 8.07303 0 12.552 0 18.2811C0 20.026 0.306476 21.8233 0.918197 23.6716C1.52992 25.5205 2.22702 27.0963 3.00812 28.3981C3.78909 29.6998 4.67472 30.9698 5.66434 32.2068C6.65395 33.4439 7.37718 34.296 7.83238 34.7652C8.28799 35.2333 8.64619 35.5723 8.90656 35.7802L33.2814 59.2962C33.7503 59.7654 34.3232 60 35.0001 60C35.6771 60 36.2504 59.7654 36.719 59.2972L61.0551 35.859C67.0188 29.896 70.0004 24.0364 70.0004 18.2811C70.0005 12.552 68.3465 8.07303 65.0395 4.84396Z" fill="#FF0505"/>
</svg>
