<svg width="53" height="53" viewBox="0 0 53 53" fill="none" xmlns="http://www.w3.org/2000/svg">
<path d="M7.86781e-06 44.0631L7.09 45.0187H7.09362L25.3442 47.4782C28.2766 47.8738 31.1198 46.2973 32.3364 43.5995C32.9191 42.3066 33.615 40.8267 34.4003 39.2777C34.4063 39.2658 34.4098 39.2598 34.4098 39.2598C36.7466 34.6471 39.8638 29.4183 43.0918 26.6895C44.3763 25.604 46.3413 26.5704 46.2817 28.2517L46.2484 29.2181L45.6073 47.4782H48.3836C48.3836 47.4782 48.1536 35.7278 50.1925 26.6645C50.7251 24.3015 51.4103 22.1209 52.2944 20.3788C52.8187 19.3469 53.0749 18.1946 52.9807 17.0412C52.7699 14.4637 51.4722 10.0441 45.8717 5.46118L27.0433 33.814C24.6922 37.3542 20.3905 39.0642 16.2509 38.1038L14.0131 37.5855L3.21841 40.6205C2.01608 40.9589 1.02346 41.8109 0.506302 42.9477L7.86781e-06 44.0631Z" fill="#EC589B"/>
<path d="M7.09362 45.0187L25.3441 47.4782C28.2766 47.8738 31.1198 46.2973 32.3364 43.5995C32.9191 42.3066 33.615 40.8267 34.4003 39.2776C34.1679 39.6816 29.6576 46.9706 7.09362 45.0187Z" fill="#D3468D"/>
<path d="M43.0918 26.6896C44.3763 25.6041 46.3413 26.5705 46.2817 28.2518L46.2484 29.2182C47.7474 28.0779 49.1297 27.2414 50.1926 26.6646C50.7252 24.3016 51.4104 22.121 52.2945 20.3789C52.2944 20.3789 47.6126 22.1687 43.0918 26.6896Z" fill="#D3468D"/>
</svg>
