<svg width="60" height="60" viewBox="0 0 83 83" fill="none" xmlns="http://www.w3.org/2000/svg">
<path d="M41.5 83C64.4198 83 83 64.4198 83 41.5C83 18.5802 64.4198 0 41.5 0C18.5802 0 0 18.5802 0 41.5C0 64.4198 18.5802 83 41.5 83Z" fill="#6DC02D"/>
<path d="M59.8723 25.9567L23.6218 50.3579L54.2454 81.003C68.7757 76.3184 79.8048 63.8416 82.4101 48.4947L59.8723 25.9567Z" fill="#559B18"/>
<path d="M65.05 40.3241C65.1589 39.7496 65.2129 39.2663 65.2377 38.8871C65.2787 38.2614 65.2322 37.3325 65.2153 37.0415C64.639 27.017 54.2386 19.0305 41.493 19.0305C28.3776 19.0305 17.7455 27.4873 17.7455 37.9193C17.7455 47.5079 26.7276 55.4273 38.3646 56.6454C39.0761 56.7198 39.5889 57.3623 39.5101 58.0729L39.0147 62.5326C38.9024 63.5448 39.9489 64.2814 40.8665 63.8385C50.6983 59.0936 56.5773 54.2121 60.0878 49.9834C60.7267 49.2137 62.8098 46.2954 63.2345 45.5288C64.1362 43.9012 64.7577 42.1533 65.05 40.3241Z" fill="white"/>
<path d="M65.2153 37.0412C64.639 27.0167 54.2385 19.0302 41.493 19.0302C41.464 19.0302 41.4358 19.0318 41.4066 19.0318V63.5738C50.9125 58.9124 56.642 54.1334 60.0878 49.9827C60.7267 49.2134 62.8098 46.2947 63.2345 45.5281C64.136 43.9009 64.7575 42.1533 65.0498 40.3238C65.1587 39.7492 65.2127 39.266 65.2375 38.8868C65.2788 38.2614 65.2322 37.3322 65.2153 37.0412Z" fill="#D1D1D1"/>
<path d="M28.4351 41.7461V33.7897C28.4351 33.1188 27.8912 32.5749 27.2203 32.5749C26.5493 32.5749 26.0054 33.1188 26.0054 33.7897V42.9608C26.0054 43.6317 26.5493 44.1756 27.2203 44.1756H32.0793C32.7503 44.1756 33.2942 43.6317 33.2942 42.9608C33.2942 42.2898 32.7503 41.7459 32.0793 41.7459H28.4351V41.7461Z" fill="#6FC32E"/>
<path d="M35.9281 44.1746H35.3972C34.873 44.1746 34.4479 43.7496 34.4479 43.2253V33.5232C34.4479 32.999 34.873 32.5739 35.3972 32.5739H35.9281C36.4524 32.5739 36.8775 32.999 36.8775 33.5232V43.2253C36.8775 43.7499 36.4524 44.1746 35.9281 44.1746Z" fill="#6FC32E"/>
<path d="M45.7445 33.7891V39.3918C45.7445 39.3918 40.8934 33.0641 40.8193 32.981C40.5877 32.7208 40.2459 32.561 39.8669 32.5752C39.2063 32.6003 38.6994 33.1778 38.6994 33.839V42.9601C38.6994 43.6311 39.2433 44.175 39.9142 44.175C40.5852 44.175 41.1291 43.6311 41.1291 42.9601V37.3915C41.1291 37.3915 46.054 43.7741 46.1264 43.8428C46.3414 44.0462 46.6298 44.172 46.9483 44.1748C47.623 44.181 48.1744 43.5842 48.1744 42.9097V33.7893C48.1744 33.1183 47.6305 32.5744 46.9595 32.5744C46.2886 32.5742 45.7445 33.1181 45.7445 33.7891Z" fill="#6FC32E"/>
<path d="M57.2843 33.7891C57.2843 33.1181 56.7404 32.5742 56.0694 32.5742H51.2104C50.5394 32.5742 49.9955 33.1181 49.9955 33.7891V42.9601C49.9955 43.6311 50.5394 44.1749 51.2104 44.1749H56.0694C56.7404 44.1749 57.2843 43.6311 57.2843 42.9601C57.2843 42.2891 56.7404 41.7452 56.0694 41.7452H52.4252V39.5892H56.0694C56.7404 39.5892 57.2843 39.0453 57.2843 38.3743C57.2843 37.7034 56.7404 37.1595 56.0694 37.1595H52.4252V35.0034H56.0694C56.7404 35.0036 57.2843 34.4597 57.2843 33.7891Z" fill="#6FC32E"/>
</svg>
