<svg width="54" height="54" viewBox="0 0 54 54" fill="none" xmlns="http://www.w3.org/2000/svg">
<g clip-path="url(#clip0)">
<path d="M44.9207 48.4749V53.0691C44.9207 53.5834 44.5041 54 43.9897 54H10.0103C9.49597 54 9.07938 53.5834 9.07938 53.0691V48.4749C9.07938 43.6759 13.0056 39.8695 17.8046 39.8229C19.3915 39.8061 20.8295 39.0249 21.7111 37.7667C22.6749 36.3899 22.578 35.1497 22.578 34.2175L22.5955 34.1744C18.4179 32.4452 15.4796 28.3293 15.4796 23.5268C15.4796 23.5268 15.4796 23.3953 15.4796 23.1626C14.4954 23.1626 13.6534 22.7045 13.1266 21.9919C13.1266 21.9907 13.1255 21.9907 13.1255 21.9896C12.8115 21.5929 12.5704 20.9608 12.5704 20.3069V8.96569C12.5704 7.23065 13.9773 5.82376 15.7123 5.82376C17.1157 2.31737 20.5113 0.00537489 24.3061 0.00537489C29.8436 0.00537489 33.4024 -0.036052 33.6993 0.112433C33.7691 0.123023 34.4109 0.237296 34.4615 0.262548C35.382 0.474104 36.4003 0.943415 36.4467 0.989846C39.4711 2.51194 41.546 5.64456 41.546 9.26127V20.137C41.546 21.808 40.1915 23.1626 38.5204 23.1626V23.5268C38.5204 28.3293 35.5821 32.4452 31.4045 34.1744L31.422 34.2175C31.422 35.1231 31.3174 36.3788 32.2889 37.7667C33.1681 39.0215 34.6041 39.8061 36.1954 39.8229C40.9944 39.8695 44.9207 43.6759 44.9207 48.4749Z" fill="#FFDFBA"/>
<path d="M41.546 9.26127V20.137C41.546 21.808 40.1915 23.1626 38.5204 23.1626V16.7193C38.5204 16.227 38.1376 15.8198 37.6465 15.7907C32.1901 15.4653 26.7267 13.8052 21.8065 10.6961C21.2712 10.3575 20.5672 10.6367 20.4043 11.2488C20.1611 12.1693 19.6141 13.3481 18.3888 14.0859C17.2618 14.7643 16.3893 14.6302 16.0614 14.7655C15.7181 14.9028 15.4796 15.2379 15.4796 15.6266V23.1626C14.4953 23.1626 13.6534 22.7045 13.1266 21.9919C13.1266 21.9907 13.1255 21.9907 13.1255 21.9896C12.9168 21.726 12.7086 21.2926 12.6228 20.8492C12.5479 20.4686 12.5704 21.3273 12.5704 8.96569C12.5704 7.23065 13.9773 5.82376 15.7123 5.82376C17.1085 2.33541 20.4941 0.00537489 24.3061 0.00537489C29.8436 0.00537489 33.4024 -0.036052 33.6993 0.112433C34.6022 0.249282 35.4922 0.533685 36.2024 0.871151C36.2162 0.878017 36.4377 0.98077 36.4467 0.989846C39.4711 2.51194 41.546 5.64456 41.546 9.26127Z" fill="#42434D"/>
<path d="M44.9207 48.4748V53.069C44.9207 53.5834 44.5041 54 43.9897 54H10.0103C9.49597 54 9.07938 53.5834 9.07938 53.069V48.4748C9.07938 43.6758 13.0056 39.8694 17.8046 39.8229C19.3915 39.806 20.8295 39.0248 21.7111 37.7667C25.7563 42.2619 24.8257 41.2277 26.3076 42.8752C26.6777 43.286 27.3224 43.286 27.6924 42.8752C29.0212 41.3978 27.9364 42.6034 32.2889 37.7667C33.1681 39.0215 34.6041 39.806 36.1954 39.8229C40.9944 39.8694 44.9207 43.6758 44.9207 48.4748Z" fill="#D6F4FC"/>
<path d="M34.3405 39.4343C34.3261 39.465 33.1775 44.6899 33.1848 44.6566C33.0333 45.344 32.1634 45.5653 31.7017 45.0339C28.6463 41.5154 29.0631 41.9742 28.7537 41.6952L32.2889 37.7666C32.8009 38.4975 33.5108 39.0782 34.3405 39.4343Z" fill="#E8F8FC"/>
<path d="M21.7111 37.7667L25.1626 41.6022L22.2996 44.9949C21.842 45.5371 20.9613 45.3198 20.8087 44.6268C20.8013 44.5936 19.6741 39.4648 19.6595 39.4341C20.4892 39.0781 21.1991 38.4975 21.7111 37.7667Z" fill="#E8F8FC"/>
<path d="M38.5204 23.5268C38.5204 29.8916 33.3597 35.0472 27 35.0472C20.6405 35.0472 15.4796 29.8919 15.4796 23.5268C15.4796 23.3405 15.4796 15.404 15.4796 15.627C15.4796 15.132 15.8665 14.7259 16.3607 14.6977C18.246 14.5903 19.8333 13.4093 20.4047 11.2485C20.5666 10.6364 21.2712 10.3575 21.8065 10.6957C26.5682 13.7037 31.9935 15.4532 37.6465 15.7905C38.1379 15.8199 38.5204 16.2271 38.5204 16.7195V23.5268Z" fill="#FFEBD2"/>
<path d="M35.8312 3.4964H27.7971C24.2421 3.4964 21.021 5.53051 19.4791 8.69339C19.3034 9.05413 18.9636 9.2985 18.5703 9.37879C17.139 9.67204 16.0614 10.9381 16.0614 12.4567V14.7655C15.7181 14.9028 15.4796 15.2379 15.4796 15.6266V21.1529C15.4796 22.4603 13.7755 22.973 13.0731 21.9186C12.9132 21.7056 12.7086 21.2679 12.646 20.9551C12.5409 20.5034 12.5704 21.3774 12.5704 8.96569C12.5704 7.23065 13.9773 5.82376 15.7123 5.82376C17.1214 2.30329 20.5284 0.00537145 24.3061 0.00537145C29.8062 0.00537145 33.402 -0.0362882 33.6993 0.11243C34.8156 0.281629 35.8398 0.692756 35.9894 0.775726C36.026 0.791087 36.4294 0.972504 36.4467 0.989843C37.7 1.62288 37.238 3.50339 35.8312 3.4964Z" fill="#4D4E59"/>
<path d="M31.5535 36.1282C28.6865 37.3283 25.5359 37.4214 22.4465 36.1282C22.6043 35.4735 22.578 35.0495 22.578 34.2174L22.5955 34.1744C25.3979 35.3376 28.5967 35.3399 31.4045 34.1744L31.422 34.2174C31.422 35.0498 31.3957 35.4737 31.5535 36.1282Z" fill="#FFD6A6"/>
<path d="M20.2646 42.1596C15.6588 42.3691 11.9886 46.1708 11.9886 50.8278V54H10.0103C9.49621 54 9.07938 53.5832 9.07938 53.0691V48.4821C9.07938 43.6815 13.0071 39.8722 17.8077 39.8227C18.4641 39.8159 19.09 39.6782 19.6595 39.4343C19.6741 39.465 20.2573 42.1264 20.2646 42.1596Z" fill="#E8F8FC"/>
<path d="M33.7354 42.1596C38.3412 42.3691 42.0114 46.1708 42.0114 50.8278V54H43.9897C44.5038 54 44.9206 53.5832 44.9206 53.0691V48.4821C44.9206 43.6815 40.9929 39.8722 36.1924 39.8227C35.5359 39.8159 34.91 39.6782 34.3405 39.4343C34.326 39.465 33.7427 42.1264 33.7354 42.1596Z" fill="#BDEFFC"/>
<path d="M21.7844 42.6541C21.9578 43.4419 22.1428 44.2809 22.2999 44.9943C21.8424 45.5367 20.9617 45.32 20.809 44.6269C20.3616 42.5949 19.6693 39.4549 19.6595 39.4342C20.4892 39.0781 21.1991 38.4975 21.7111 37.7667L22.7049 38.8722C21.8507 39.9358 21.4888 41.3147 21.7844 42.6541Z" fill="#F1FAFC"/>
<path d="M24.4589 13.2575C24.2543 14.9068 23.531 16.3864 22.3245 17.2831C20.1763 18.8797 18.9705 21.4486 18.9705 24.1251V27.0177C18.9705 28.7432 16.7742 29.0562 16.2281 27.62C15.7443 26.348 15.4795 24.9682 15.4795 23.5266V15.6269C15.4795 15.1319 15.8664 14.7258 16.3606 14.6976C18.2511 14.5898 19.8347 13.4043 20.4047 11.2481C20.5665 10.6365 21.2701 10.3571 21.805 10.6949C22.3934 11.0666 23.0335 11.445 23.725 11.8192C24.2438 12.1004 24.5315 12.6721 24.4589 13.2575Z" fill="#FFF3E4"/>
<path d="M28.7537 41.6953L30.491 54H23.509L25.1625 41.6022L26.3081 42.8747C26.6779 43.2854 27.322 43.2854 27.6918 42.8747L28.7537 41.6953Z" fill="#FE4F60"/>
<path d="M26.3786 42.9532L24.9054 54H23.509L25.1625 41.6022L26.3786 42.9532Z" fill="#E84857"/>
</g>
<defs>
<clipPath id="clip0">
<rect width="54" height="54" fill="white"/>
</clipPath>
</defs>
</svg>
