<svg width="86" height="86" viewBox="0 0 86 86" fill="none" xmlns="http://www.w3.org/2000/svg">
<path d="M86 43C86 57.1968 74.5334 68.8 60.2 68.8C46.0032 68.8 34.4 57.1968 34.4 43C34.4 28.8032 45.8667 17.2 60.0635 17.2C74.5334 17.2 86 28.8032 86 43Z" fill="#FFB600"/>
<path d="M60.2 17.2C74.3968 17.2 86 28.8032 86 43C86 57.1968 74.5334 68.8 60.2 68.8C46.0032 68.8 34.4 57.1968 34.4 43" fill="#F7981D"/>
<path d="M60.2 17.2C74.3968 17.2 86 28.8032 86 43C86 57.1968 74.5333 68.8 60.2 68.8" fill="#FF8500"/>
<path d="M25.527 17.2C11.4667 17.3365 0 28.8032 0 43C0 57.1968 11.4667 68.8 25.8 68.8C32.4889 68.8 38.4952 66.2063 43.1365 62.1111C44.0921 61.2921 44.9111 60.3365 45.7302 59.381H40.4063C39.7238 58.5619 39.0413 57.6063 38.4952 56.7873H47.6413C48.1873 55.9683 48.7333 55.0127 49.1429 54.0571H36.9937C36.5841 53.2381 36.1746 52.2825 35.9016 51.327H50.0984C50.9175 48.7333 51.4635 46.0032 51.4635 43.1365C51.4635 41.2254 51.1905 39.4508 50.9175 37.6762H35.0825C35.2191 36.7206 35.4921 35.9016 35.7651 34.946H49.9619C49.6889 33.9905 49.2794 33.0349 48.8698 32.2159H36.8571C37.2667 31.2603 37.8127 30.4413 38.3587 29.4857H47.5048C46.9587 28.5302 46.2762 27.5746 45.4571 26.7556H40.4063C41.2254 25.8 42.0444 24.981 43 24.1619C38.4952 19.9302 32.3524 17.473 25.6635 17.473C25.6635 17.2 25.6635 17.2 25.527 17.2Z" fill="#FF5050"/>
<path d="M0 43C0 57.1968 11.4667 68.8 25.8 68.8C32.4889 68.8 38.4952 66.2064 43.1365 62.1111C44.0921 61.2921 44.9111 60.3365 45.7302 59.381H40.4063C39.7238 58.5619 39.0413 57.6064 38.4952 56.7873H47.6413C48.1873 55.9683 48.7333 55.0127 49.1429 54.0571H36.9937C36.5841 53.2381 36.1746 52.2825 35.9016 51.327H50.0984C50.9175 48.7333 51.4635 46.0032 51.4635 43.1365C51.4635 41.2254 51.1905 39.4508 50.9175 37.6762H35.0825C35.2191 36.7206 35.4921 35.9016 35.7651 34.946H49.9619C49.6889 33.9905 49.2794 33.0349 48.8698 32.2159H36.8571C37.2667 31.2603 37.8127 30.4413 38.3587 29.4857H47.5048C46.9587 28.5302 46.2762 27.5746 45.4571 26.7556H40.4063C41.2254 25.8 42.0444 24.981 43 24.1619C38.4952 19.9302 32.3524 17.473 25.6635 17.473H25.527" fill="#E52836"/>
<path d="M25.8 68.8C32.4889 68.8 38.4952 66.2064 43.1365 62.1111C44.0921 61.2921 44.9111 60.3365 45.7302 59.381H40.4063C39.7238 58.5619 39.0413 57.6064 38.4952 56.7873H47.6413C48.1873 55.9683 48.7333 55.0127 49.1429 54.0571H36.9936C36.5841 53.2381 36.1746 52.2825 35.9016 51.327H50.0984C50.9175 48.7333 51.4635 46.0032 51.4635 43.1365C51.4635 41.2254 51.1905 39.4508 50.9175 37.6762H35.0825C35.219 36.7206 35.4921 35.9016 35.7651 34.946H49.9619C49.6889 33.9905 49.2794 33.0349 48.8698 32.2159H36.8571C37.2667 31.2603 37.8127 30.4413 38.3587 29.4857H47.5048C46.9587 28.5302 46.2762 27.5746 45.4571 26.7556H40.4063C41.2254 25.8 42.0444 24.981 43 24.1619C38.4952 19.9302 32.3524 17.473 25.6635 17.473H25.527" fill="#CB2026"/>
<path d="M34.946 49.5524L35.3556 47.2317C35.219 47.2317 34.946 47.3682 34.673 47.3682C33.7175 47.3682 33.581 46.8222 33.7175 46.5492L34.5365 41.7714H36.0381L36.4476 39.1778H35.0825L35.3556 37.5397H32.6254C32.6254 37.5397 30.9873 46.5492 30.9873 47.6413C30.9873 49.2794 31.9429 49.9619 33.1714 49.9619C33.9905 49.9619 34.673 49.6889 34.946 49.5524Z" fill="white"/>
<path d="M35.9016 45.1842C35.9016 49.0064 38.4953 49.9619 40.6794 49.9619C42.727 49.9619 43.5461 49.5524 43.5461 49.5524L44.0921 46.9588C44.0921 46.9588 42.5905 47.6413 41.2254 47.6413C38.2222 47.6413 38.7683 45.4572 38.7683 45.4572H44.3651C44.3651 45.4572 44.7746 43.6826 44.7746 43C44.7746 41.2254 43.8191 39.0413 40.8159 39.0413C37.9492 38.7683 35.9016 41.7715 35.9016 45.1842ZM40.6794 41.2254C42.181 41.2254 41.908 43 41.908 43.1365H38.9048C38.9048 43 39.1778 41.2254 40.6794 41.2254Z" fill="white"/>
<path d="M58.0159 49.5524L58.5619 46.5492C58.5619 46.5492 57.1968 47.2317 56.2413 47.2317C54.3302 47.2317 53.5111 45.7302 53.5111 44.0921C53.5111 40.8159 55.1492 39.0413 57.0603 39.0413C58.4254 39.0413 59.5175 39.8603 59.5175 39.8603L59.927 36.9937C59.927 36.9937 58.2889 36.3111 56.7873 36.3111C53.6476 36.3111 50.5079 39.0413 50.5079 44.2286C50.5079 47.6413 52.146 49.9619 55.4222 49.9619C56.5143 49.9619 58.0159 49.5524 58.0159 49.5524Z" fill="white"/>
<path d="M19.9302 38.7683C18.019 38.7683 16.654 39.3143 16.654 39.3143L16.2444 41.6349C16.2444 41.6349 17.473 41.0889 19.2476 41.0889C20.2032 41.0889 21.0222 41.2254 21.0222 42.0445C21.0222 42.5905 20.8857 42.727 20.8857 42.727C20.8857 42.727 20.0667 42.727 19.6571 42.727C17.3365 42.727 14.7429 43.6826 14.7429 46.8222C14.7429 49.2794 16.381 49.8254 17.3365 49.8254C19.2476 49.8254 20.0667 48.5968 20.2032 48.5968L20.0667 49.6889H22.5238L23.6159 42.181C23.6159 38.9048 20.8857 38.7683 19.9302 38.7683ZM20.4762 44.9111C20.4762 45.3207 20.2032 47.5048 18.5651 47.5048C17.746 47.5048 17.473 46.8222 17.473 46.4127C17.473 45.7302 17.8825 44.7746 19.9302 44.7746C20.3397 44.9111 20.4762 44.9111 20.4762 44.9111Z" fill="white"/>
<path d="M26.2096 49.8254C26.8921 49.8254 30.3048 49.9619 30.3048 46.2762C30.3048 42.8635 27.0286 43.5461 27.0286 42.181C27.0286 41.4984 27.5746 41.2254 28.5302 41.2254C28.9397 41.2254 30.4413 41.3619 30.4413 41.3619L30.8508 38.9048C30.8508 38.9048 29.8953 38.6318 28.2572 38.6318C26.2096 38.6318 24.162 39.4508 24.162 42.181C24.162 45.3207 27.5746 45.0476 27.5746 46.2762C27.5746 47.0953 26.6191 47.2318 25.9366 47.2318C24.708 47.2318 23.4794 46.8222 23.4794 46.8222L23.0699 49.2794C23.2064 49.5524 23.8889 49.8254 26.2096 49.8254Z" fill="white"/>
<path d="M80.6762 36.5842L80.1302 40.2699C80.1302 40.2699 79.0381 38.9048 77.5365 38.9048C75.0794 38.9048 72.8953 41.908 72.8953 45.4572C72.8953 47.6413 73.9873 49.9619 76.308 49.9619C77.9461 49.9619 78.9016 48.8699 78.9016 48.8699L78.7651 49.8254H81.4953L83.5429 36.7207L80.6762 36.5842ZM79.4476 43.8191C79.4476 45.3207 78.7651 47.2318 77.2635 47.2318C76.308 47.2318 75.7619 46.4127 75.7619 45.0477C75.7619 42.8635 76.7175 41.4985 77.9461 41.4985C78.9016 41.4985 79.4476 42.181 79.4476 43.8191Z" fill="white"/>
<path d="M5.0508 49.6889L6.6889 39.8604L6.96192 49.6889H8.87303L12.4222 39.8604L10.9206 49.6889H13.7873L15.9714 36.5842H11.4667L8.73652 44.6381L8.60001 36.5842H4.64128L2.45715 49.6889H5.0508Z" fill="white"/>
<path d="M47.3683 49.6889C48.1873 45.1841 48.3238 41.4984 50.235 42.181C50.508 40.4064 50.9175 39.7238 51.1905 39.0413C51.1905 39.0413 51.054 39.0413 50.6445 39.0413C49.4159 39.0413 48.4604 40.6794 48.4604 40.6794L48.7334 39.1778H46.1397L44.3651 49.8254H47.3683V49.6889Z" fill="white"/>
<path d="M64.2953 38.7683C62.3842 38.7683 61.0191 39.3143 61.0191 39.3143L60.6096 41.6349C60.6096 41.6349 61.8381 41.0889 63.6127 41.0889C64.5683 41.0889 65.3873 41.2254 65.3873 42.0445C65.3873 42.5905 65.2508 42.727 65.2508 42.727C65.2508 42.727 64.4318 42.727 64.0223 42.727C61.7016 42.727 59.108 43.6826 59.108 46.8222C59.108 49.2794 60.7461 49.8254 61.7016 49.8254C63.6127 49.8254 64.4318 48.5968 64.5683 48.5968L64.4318 49.6889H66.8889L67.981 42.181C68.1175 38.9048 65.2508 38.7683 64.2953 38.7683ZM64.9778 44.9111C64.9778 45.3207 64.7048 47.5048 63.0667 47.5048C62.2477 47.5048 61.9746 46.8222 61.9746 46.4127C61.9746 45.7302 62.3842 44.7746 64.4318 44.7746C64.8413 44.9111 64.8413 44.9111 64.9778 44.9111Z" fill="white"/>
<path d="M70.3016 49.6889C71.1206 45.1841 71.2571 41.4984 73.1682 42.181C73.4413 40.4064 73.8508 39.7238 74.1238 39.0413C74.1238 39.0413 73.9873 39.0413 73.5778 39.0413C72.3492 39.0413 71.3936 40.6794 71.3936 40.6794L71.6667 39.1778H69.073L67.2984 49.8254H70.3016V49.6889Z" fill="white"/>
<path d="M30.7143 47.6413C30.7143 49.2794 31.6699 49.9619 32.8984 49.9619C33.854 49.9619 34.673 49.6889 34.946 49.5524L35.3556 47.2317C35.2191 47.2317 34.946 47.3682 34.673 47.3682C33.7175 47.3682 33.581 46.8222 33.7175 46.5492L34.5365 41.7714H36.0381L36.4476 39.1778H35.0825L35.3556 37.5397" fill="#DCE5E5"/>
<path d="M37.2667 45.1842C37.2667 49.0064 38.4952 49.9619 40.6794 49.9619C42.727 49.9619 43.546 49.5524 43.546 49.5524L44.0921 46.9588C44.0921 46.9588 42.5905 47.6413 41.2254 47.6413C38.2222 47.6413 38.7683 45.4572 38.7683 45.4572H44.3651C44.3651 45.4572 44.7746 43.6826 44.7746 43C44.7746 41.2254 43.819 39.0413 40.8159 39.0413C37.9492 38.7683 37.2667 41.7715 37.2667 45.1842ZM40.6794 41.2254C42.1809 41.2254 42.454 43 42.454 43.1365H38.9048C38.9048 43 39.1778 41.2254 40.6794 41.2254Z" fill="#DCE5E5"/>
<path d="M58.0159 49.5524L58.5619 46.5492C58.5619 46.5492 57.1969 47.2317 56.2413 47.2317C54.3302 47.2317 53.5111 45.7302 53.5111 44.0921C53.5111 40.8159 55.1492 39.0413 57.0603 39.0413C58.4254 39.0413 59.5175 39.8603 59.5175 39.8603L59.927 36.9937C59.927 36.9937 58.2889 36.3111 56.7873 36.3111C53.6476 36.3111 51.873 39.0413 51.873 44.2286C51.873 47.6413 52.1461 49.9619 55.4223 49.9619C56.5143 49.9619 58.0159 49.5524 58.0159 49.5524Z" fill="#DCE5E5"/>
<path d="M16.2444 41.7714C16.2444 41.7714 17.473 41.2254 19.2476 41.2254C20.2032 41.2254 21.0222 41.3619 21.0222 42.181C21.0222 42.727 20.8857 42.8635 20.8857 42.8635C20.8857 42.8635 20.0667 42.8635 19.6571 42.8635C17.3365 42.8635 14.7429 43.8191 14.7429 46.9587C14.7429 49.4159 16.381 49.9619 17.3365 49.9619C19.2476 49.9619 20.0667 48.7333 20.2032 48.7333L20.0667 49.8254H22.5238L23.6159 42.3175C23.6159 39.1778 20.8857 39.0413 19.7936 39.0413L16.2444 41.7714ZM21.8413 44.9111C21.8413 45.3207 20.2032 47.5048 18.5651 47.5048C17.746 47.5048 17.473 46.8222 17.473 46.4127C17.473 45.7302 17.8825 44.7746 19.9302 44.7746C20.3397 44.9111 21.8413 44.9111 21.8413 44.9111Z" fill="#DCE5E5"/>
<path d="M23.2064 49.5524C23.2064 49.5524 24.0254 49.8254 26.346 49.8254C27.0286 49.8254 30.4413 49.9619 30.4413 46.2762C30.4413 42.8635 27.1651 43.5461 27.1651 42.181C27.1651 41.4984 27.7111 41.2254 28.6667 41.2254C29.0762 41.2254 30.5778 41.3619 30.5778 41.3619L30.9873 38.9048C30.9873 38.9048 30.0318 38.6318 28.3937 38.6318C26.346 38.6318 25.6635 39.4508 25.6635 42.181C25.6635 45.3207 27.7111 45.0476 27.7111 46.2762C27.7111 47.0953 26.7556 47.2318 26.073 47.2318" fill="#DCE5E5"/>
<path d="M80.1302 40.2698C80.1302 40.2698 79.0381 38.9048 77.5365 38.9048C75.0794 38.9048 74.2603 41.9079 74.2603 45.4571C74.2603 47.6413 73.9873 49.9619 76.308 49.9619C77.946 49.9619 78.9016 48.8698 78.9016 48.8698L78.7651 49.8254H81.4953L83.5429 36.7206L80.1302 40.2698ZM79.9937 43.819C79.9937 45.3206 78.7651 47.2317 77.2635 47.2317C76.3079 47.2317 75.7619 46.4127 75.7619 45.0476C75.7619 42.8635 76.7175 41.4984 77.946 41.4984C78.9016 41.4984 79.9937 42.181 79.9937 43.819Z" fill="#DCE5E5"/>
<path d="M5.0508 49.6889L6.6889 39.8604L6.96192 49.6889H8.87303L12.4222 39.8604L10.9206 49.6889H13.7873L15.9714 36.5842H12.5587L8.73652 44.6381L8.60001 36.5842H7.09842L2.45715 49.6889H5.0508Z" fill="#DCE5E5"/>
<path d="M44.5016 49.6889H47.3683C48.1873 45.1842 48.3238 41.4984 50.2349 42.181C50.5079 40.4064 50.9175 39.7238 51.1905 39.0413C51.1905 39.0413 51.054 39.0413 50.6444 39.0413C49.4159 39.0413 48.4603 40.6794 48.4603 40.6794L48.7333 39.1778" fill="#DCE5E5"/>
<path d="M60.6096 41.7714C60.6096 41.7714 61.8381 41.2254 63.6127 41.2254C64.5683 41.2254 65.3873 41.3619 65.3873 42.181C65.3873 42.727 65.2508 42.8635 65.2508 42.8635C65.2508 42.8635 64.4318 42.8635 64.0223 42.8635C61.7016 42.8635 59.108 43.8191 59.108 46.9587C59.108 49.4159 60.7461 49.9619 61.7016 49.9619C63.6127 49.9619 64.4318 48.7333 64.5683 48.7333L64.4318 49.8254H66.8889L67.981 42.3175C67.981 39.1778 65.2508 39.0413 64.1588 39.0413L60.6096 41.7714ZM66.2064 44.9111C66.2064 45.3207 64.5683 47.5048 62.9302 47.5048C62.1111 47.5048 61.8381 46.8222 61.8381 46.4127C61.8381 45.7302 62.2477 44.7746 64.2953 44.7746C64.8413 44.9111 66.2064 44.9111 66.2064 44.9111Z" fill="#DCE5E5"/>
<path d="M67.4349 49.6889H70.3016C71.1207 45.1842 71.2572 41.4984 73.1683 42.181C73.4413 40.4064 73.8508 39.7238 74.1238 39.0413C74.1238 39.0413 73.9873 39.0413 73.5778 39.0413C72.3492 39.0413 71.3937 40.6794 71.3937 40.6794L71.6667 39.1778" fill="#DCE5E5"/>
</svg>
