<svg width="55" height="55" viewBox="0 0 55 55" fill="none" xmlns="http://www.w3.org/2000/svg">
<g clip-path="url(#clip0)">
<path d="M54.0517 47.4141V27.5002C54.0486 26.4541 53.2013 25.6068 52.1552 25.6037H50.9509C50.0776 25.6085 49.3194 26.2065 49.1112 27.0546C48.4762 29.806 47.0055 32.2935 44.9009 34.1761C42.2275 34.4189 39.5328 34.259 36.9069 33.702L47.9259 22.683C49.7768 20.8315 49.7768 17.8302 47.9259 15.9787L47.1767 15.2296L46.5793 14.6321C46.2094 14.2645 45.6121 14.2645 45.2422 14.6321L44.569 13.9683L40.5483 9.93817L31.1603 0.550237C30.4149 -0.180076 29.2222 -0.180076 28.4767 0.550237L27.6233 1.40369C27.0109 2.02785 26.8979 2.987 27.3483 3.73645C28.8449 6.12748 29.5638 8.92352 29.406 11.7399C27.3045 14.3119 24.7088 16.4368 21.7724 17.989L19.6957 12.8209C19.3481 11.937 18.3974 11.4495 17.4767 11.683L15.3146 12.2235C14.4146 12.4478 13.8088 13.2903 13.8827 14.2149C13.9311 14.7763 13.9728 15.4695 14.0041 16.2698L10.8103 17.0692C10.3461 17.1856 10.0413 17.6296 10.0997 18.1047C10.158 18.5797 10.5612 18.9368 11.0398 18.9373C11.1175 18.9376 11.195 18.9281 11.2702 18.9089L14.0459 18.2157C14.0459 18.8671 14.0459 19.5613 14.024 20.2886L10.8103 21.0927C10.3461 21.2091 10.0413 21.6532 10.0997 22.1282C10.158 22.6032 10.5612 22.9603 11.0398 22.9609C11.1175 22.9612 11.195 22.9516 11.2702 22.9324L13.9349 22.2686C13.8938 22.9514 13.8382 23.6547 13.768 24.3785L10.8103 25.1172C10.3442 25.232 10.0373 25.6771 10.0958 26.1536C10.1543 26.6301 10.5597 26.9877 11.0398 26.9863C11.1175 26.9861 11.1949 26.9766 11.2702 26.9578L13.5338 26.3889C13.4168 27.2689 13.2711 28.1625 13.0966 29.0696L10.1399 29.8084C9.67583 29.9247 9.37107 30.3684 9.42917 30.8433C9.48726 31.3182 9.89001 31.6755 10.3684 31.6765C10.4464 31.6767 10.5241 31.6674 10.5998 31.649L12.6661 31.1322C11.9294 34.3519 10.7216 37.4453 9.08163 40.3124V40.3219C8.45576 40.4452 7.82042 40.5495 7.18508 40.6348C6.69197 40.7012 6.18939 40.7486 5.6868 40.7771C5.6868 40.7771 0.784213 40.7771 0.0824884 44.5702C0.0247497 44.8826 -0.00287695 45.1998 -1.16461e-05 45.5175C-0.00363652 46.1808 0.0439184 46.8434 0.14223 47.4994C1.23275 55.0003 8.53447 55.0003 8.53447 55.0003H50.2586C52.8772 55.0003 55 52.8775 55 50.2589V48.3623C55 47.8386 54.5754 47.4141 54.0517 47.4141Z" fill="#E64C3C"/>
<path d="M45.2422 14.6319L35.0483 24.8258L34.5931 24.5508C33.9911 24.1809 33.2322 24.1809 32.6302 24.5508C34.0905 20.8905 35.1431 18.0267 35.5888 16.737C35.7563 16.2779 35.6415 15.7633 35.2948 15.4189L35.2758 15.4C34.8453 14.9674 34.1675 14.9036 33.6638 15.2482C31.6724 16.5948 26.5138 19.5629 21.7724 17.9888C24.7088 16.4365 27.3045 14.3117 29.406 11.7396C30.1822 10.8253 31.0051 9.9517 31.8715 9.12238C32.625 8.46792 33.7568 8.50937 34.4603 9.2172L35.181 9.93789C35.603 10.3623 36.2005 10.5627 36.7931 10.4784L40.5483 9.93789L44.569 13.9681L45.2422 14.6319Z" fill="#E57E25"/>
<path d="M40.5483 9.93792L36.7931 10.4784C36.2006 10.5627 35.603 10.3624 35.181 9.93792L34.4603 9.21723C33.7568 8.50941 32.625 8.46795 31.8715 9.12241C31.0051 9.95174 30.1822 10.8253 29.406 11.7396C29.5638 8.92328 28.8449 6.12723 27.3483 3.7362C26.8979 2.98675 27.0109 2.02761 27.6233 1.40344L28.4767 0.549993C29.2222 -0.18032 30.4149 -0.18032 31.1603 0.549993L40.5483 9.93792Z" fill="#C03A2B"/>
<path d="M35.5888 16.7371C35.1431 18.0267 34.0905 20.8905 32.6302 24.5509C32.4572 24.6572 32.3033 24.7918 32.175 24.9491C29.3966 28.1922 21.213 36.8784 11.0285 39.8276C10.3836 40.0172 9.73881 40.1784 9.0845 40.3112C10.8945 37.1323 12.1846 33.6845 12.9061 30.0983V30.0888C13.2429 28.5321 13.4993 26.959 13.6742 25.3759C13.8448 23.9345 13.9397 22.5595 13.9966 21.2698C14.0535 19.7905 14.063 18.425 14.0345 17.2396C14.0061 16.0164 13.9492 14.9922 13.8828 14.2146C13.8089 13.29 14.4146 12.4476 15.3147 12.2233L17.4767 11.6828C18.3974 11.4492 19.3481 11.9368 19.6957 12.8207L21.7724 17.9888C26.5138 19.5629 31.6724 16.5948 33.6638 15.2483C34.1675 14.9037 34.8453 14.9675 35.2759 15.4L35.2948 15.419C35.6416 15.7634 35.7563 16.278 35.5888 16.7371Z" fill="#C03A2B"/>
<path d="M54.0518 40.7758V47.4138H33.1897C39.1828 45.1664 43.9906 42.9189 45.7449 42.075C46.1859 41.8681 46.467 41.4242 46.4655 40.937V40.9086C46.4638 40.2982 46.031 39.7741 45.4319 39.6569C43.0707 39.2017 37.3242 37.656 35.0862 33.1896C35.6835 33.3929 36.2913 33.5638 36.9069 33.7017C39.5329 34.2588 42.2275 34.4186 44.9009 34.1758C46.0956 34.0674 47.2957 34.0295 48.4949 34.062C49.4901 34.1319 50.2611 34.9609 50.2586 35.9586V36.9827C50.2606 37.5792 50.5412 38.1405 51.0173 38.5L54.0518 40.7758Z" fill="#F29C1F"/>
<path d="M55 48.362V50.2586C55 52.8772 52.8772 55 50.2586 55H8.53448C8.53448 55 1.23276 55 0.142241 47.4991C0.0439297 46.8431 -0.00362522 46.1805 -0.000192913 45.5172C-0.000192913 45.5172 7.58621 50.2586 12.3276 50.2586H18.9655C21.8677 50.3025 24.762 49.9451 27.5664 49.1965C28.4198 48.9784 29.3397 48.7224 30.3354 48.4094C31.1129 48.1629 31.9285 47.8784 32.8009 47.556C32.9241 47.5086 33.0569 47.4612 33.1897 47.4138H54.0517C54.5755 47.4138 55 47.8383 55 48.362Z" fill="#A5A5A4"/>
<path d="M55 50.2586C55 52.8772 52.8772 55 50.2586 55H8.53448C8.53448 55 1.23276 55 0.142242 47.4991C1.18535 48.1345 7.96552 52.1552 12.3276 52.1552H18.9655C21.8677 52.1991 24.762 51.8417 27.5664 51.0931C28.4198 50.875 29.3396 50.619 30.3353 50.3061C31.1129 50.0595 31.9284 49.775 32.8009 49.4526C32.9241 49.4052 33.0569 49.3578 33.1896 49.3104H54.0517C54.5754 49.3104 55 49.7349 55 50.2586Z" fill="#D1D4D1"/>
<path d="M27.5664 49.1965C24.7621 49.9451 21.8677 50.3025 18.9655 50.2586H12.3276C7.58622 50.2586 5.43107e-06 45.5172 5.43107e-06 45.5172C-0.00198258 45.1991 0.026597 44.8816 0.0853503 44.569C0.787075 40.7758 5.68966 40.7758 5.68966 40.7758C6.19225 40.7474 6.69484 40.7 7.18794 40.6336H15.5612C16.1407 40.6503 16.7178 40.7138 17.2871 40.8233C21.9141 41.6856 25.786 44.8396 27.5664 49.1965Z" fill="#F29C1F"/>
<path d="M51.2069 52.1552H41.7242C41.2004 52.1552 40.7759 51.7307 40.7759 51.2069C40.7759 50.6832 41.2004 50.2587 41.7242 50.2587H51.2069C51.7306 50.2587 52.1552 50.6832 52.1552 51.2069C52.1552 51.7307 51.7306 52.1552 51.2069 52.1552Z" fill="#7F8C8D"/>
<path d="M22.7586 37.931C22.5868 37.9311 22.4183 37.8842 22.2712 37.7954L17.5298 34.9506C17.2328 34.7793 17.0514 34.4611 17.0553 34.1182C17.0592 33.7754 17.2479 33.4614 17.5488 33.297C17.8497 33.1326 18.2159 33.1434 18.5066 33.3253L23.2479 36.1701C23.6132 36.3897 23.787 36.826 23.6729 37.2366C23.5588 37.6473 23.1848 37.9313 22.7586 37.931Z" fill="#ECF0F1"/>
<path d="M26.5517 35.0862C26.3799 35.0863 26.2114 35.0394 26.0643 34.9506L21.3229 32.1058C21.0259 31.9345 20.8445 31.6162 20.8484 31.2734C20.8523 30.9305 21.041 30.6165 21.3419 30.4521C21.6428 30.2877 22.009 30.2985 22.2996 30.4804L27.041 33.3253C27.4063 33.5449 27.5801 33.9812 27.466 34.3918C27.3519 34.8024 26.9779 35.0865 26.5517 35.0862Z" fill="#ECF0F1"/>
<path d="M29.3966 32.2414C29.2248 32.2414 29.0562 32.1945 28.9091 32.1058L24.1678 29.2609C23.8707 29.0897 23.6893 28.7714 23.6932 28.4285C23.6972 28.0857 23.8859 27.7717 24.1868 27.6073C24.4876 27.4429 24.8538 27.4537 25.1445 27.6356L29.8859 30.4804C30.2511 30.7 30.425 31.1363 30.3109 31.547C30.1968 31.9576 29.8227 32.2416 29.3966 32.2414Z" fill="#ECF0F1"/>
<path d="M32.2414 29.3965C32.0696 29.3966 31.901 29.3497 31.754 29.2609L27.0126 26.4161C26.7156 26.2448 26.5341 25.9265 26.5381 25.5837C26.542 25.2408 26.7307 24.9268 27.0316 24.7624C27.3325 24.598 27.6987 24.6088 27.9893 24.7907L32.7307 27.6356C33.0959 27.8552 33.2698 28.2915 33.1557 28.7021C33.0416 29.1127 32.6676 29.3968 32.2414 29.3965Z" fill="#ECF0F1"/>
<path d="M47.9259 22.6828L36.9069 33.7017C36.2912 33.5638 35.6835 33.3929 35.0862 33.1896L37.2767 28.069C37.6517 27.1979 37.3232 26.1839 36.5086 25.6983L35.0483 24.8259L45.2422 14.6319C45.6121 14.2642 46.2094 14.2642 46.5793 14.6319L47.9259 15.9784C49.7768 17.83 49.7768 20.8312 47.9259 22.6828Z" fill="#D1D4D1"/>
<path d="M40.6811 25.5086C40.2976 25.5085 39.9519 25.2775 39.8052 24.9232C39.6584 24.5689 39.7395 24.1611 40.0106 23.8899L45.2423 18.6592C45.4804 18.4127 45.8329 18.3138 46.1645 18.4006C46.496 18.4874 46.7549 18.7463 46.8417 19.0779C46.9285 19.4094 46.8296 19.762 46.5831 20.0001L41.3515 25.2308C41.1741 25.4092 40.9327 25.5093 40.6811 25.5086Z" fill="#7F8C8D"/>
<path d="M10.3713 31.6724C9.89285 31.6714 9.49011 31.3142 9.43201 30.8393C9.37392 30.3644 9.67867 29.9206 10.1427 29.8043L15.5071 28.4634C16.0097 28.3504 16.5107 28.6592 16.6354 29.159C16.7601 29.6589 16.4629 30.1669 15.9661 30.3031L10.6027 31.6449C10.5269 31.6634 10.4492 31.6726 10.3713 31.6724Z" fill="#D1D4D1"/>
<path d="M11.0427 26.9822C10.5626 26.9836 10.1572 26.626 10.0987 26.1495C10.0402 25.673 10.347 25.2279 10.8132 25.1131L16.1785 23.7723C16.6811 23.6592 17.1821 23.968 17.3068 24.4679C17.4315 24.9677 17.1343 25.4757 16.6375 25.6119L11.2731 26.9537C11.1977 26.9725 11.1204 26.982 11.0427 26.9822Z" fill="#D1D4D1"/>
<path d="M11.0427 22.9587C10.5641 22.9582 10.1609 22.6011 10.1025 22.1261C10.0442 21.651 10.3489 21.207 10.8132 21.0906L16.1785 19.7488C16.6868 19.6221 17.2016 19.9314 17.3283 20.4396C17.455 20.9479 17.1458 21.4627 16.6375 21.5894L11.2731 22.9303C11.1978 22.9495 11.1204 22.959 11.0427 22.9587Z" fill="#D1D4D1"/>
<path d="M11.0427 18.9352C10.5664 18.9324 10.1661 18.5767 10.1072 18.104C10.0484 17.6314 10.3493 17.1884 10.8104 17.0689L16.1757 15.7271C16.684 15.6004 17.1987 15.9097 17.3255 16.418C17.4522 16.9262 17.1429 17.441 16.6347 17.5677L11.2703 18.9086C11.1958 18.9269 11.1194 18.9358 11.0427 18.9352Z" fill="#D1D4D1"/>
<path d="M47.1767 15.2293C46.8336 15.1034 46.4486 15.1886 46.1905 15.4474L36.1483 25.4896L35.0483 24.8258L45.2422 14.6319C45.6121 14.2642 46.2094 14.2642 46.5793 14.6319L47.1767 15.2293Z" fill="#A5A5A4"/>
</g>
<defs>
<clipPath id="clip0">
<rect width="55" height="55" fill="white"/>
</clipPath>
</defs>
</svg>
