<svg width="54" height="54" viewBox="0 0 54 54" fill="none" xmlns="http://www.w3.org/2000/svg">
<path d="M11.8146 45.3801H42.1854V51.242H11.8146V45.3801Z" fill="#EC6437"/>
<path d="M35.4038 3.81162C35.4263 3.9453 35.4266 4.08177 35.4048 4.21557C34.733 8.3974 31.2198 11.5952 27 11.5952C22.7802 11.5952 19.267 8.3974 18.5952 4.21557C18.5732 4.08034 18.5739 3.94239 18.5973 3.8074C18.6359 3.58814 18.7314 3.38287 18.8744 3.21221C19.0174 3.04155 19.2027 2.91149 19.4118 2.83509C19.621 2.75869 19.8465 2.73863 20.0658 2.77693C20.2851 2.81523 20.4905 2.91055 20.6613 3.0533C20.8903 3.24362 21.0428 3.51033 21.0906 3.80424C21.2947 5.09217 21.8879 6.28682 22.7907 7.22775C23.3277 7.80785 23.9788 8.27069 24.7032 8.58722C25.4276 8.90375 26.2095 9.06715 27 9.06715C27.7905 9.06715 28.5725 8.90375 29.2968 8.58722C30.0212 8.27069 30.6723 7.80785 31.2093 7.22775C32.1121 6.28682 32.7053 5.09217 32.9094 3.80424C32.961 3.51041 33.1148 3.24427 33.3436 3.05277C33.5723 2.86128 33.8614 2.75675 34.1597 2.75763C34.458 2.75852 34.7464 2.86476 34.9741 3.0576C35.2017 3.25044 35.3539 3.51749 35.4038 3.81162Z" fill="#EC6437"/>
<path d="M47.1688 12.5149C46.1669 10.1571 44.5567 8.10763 42.5029 6.57622C40.4491 5.04482 38.0254 4.0864 35.4797 3.79898L35.4037 3.81164C35.4263 3.94532 35.4266 4.08179 35.4048 4.21559C34.733 8.39742 31.2198 11.5952 27 11.5952C22.7802 11.5952 19.267 8.39742 18.5952 4.21559C18.5732 4.08036 18.5739 3.94241 18.5973 3.80742L18.5382 3.79688C15.9891 4.08139 13.5615 5.03871 11.5042 6.57068C9.44702 8.10266 7.83423 10.1542 6.83121 12.5149L3.98145 19.2196L11.8146 21.3448V45.38H42.1854V21.3448H42.2761L49.9953 19.2301L50.0186 19.2206L47.1688 12.5149Z" fill="#F9D438"/>
<path d="M38.3927 19.0793V24.1376C38.3926 24.4789 38.3051 24.8145 38.1386 25.1125C37.972 25.4104 37.732 25.6608 37.4414 25.8398L34.6528 27.5548L31.8653 25.8398C31.5745 25.661 31.3344 25.4107 31.1678 25.1127C31.0013 24.8147 30.9139 24.4789 30.9139 24.1376V19.0793H38.3927Z" fill="#3090FC"/>
<path d="M50.0186 19.2206L49.9954 19.2301L42.1854 21.3574V24.8347L51.3432 22.3383L50.0186 19.2206Z" fill="#EC6437"/>
<path d="M11.8146 21.3448V24.8221L2.65675 22.3383L3.98144 19.2196L11.8146 21.3448Z" fill="#EC6437"/>
<path d="M11.8146 45.3801H14.9787V51.242H11.8146V45.3801Z" fill="#FFA992"/>
<path d="M2.65675 22.3383L5.80109 23.1911L7.19961 20.0927L3.98144 19.2196L2.65675 22.3383Z" fill="#FFA992"/>
<path d="M18.6438 4.48147C18.6269 4.39309 18.6095 4.30492 18.5952 4.21559C18.5732 4.08036 18.5739 3.94241 18.5973 3.80742L18.5382 3.79688C15.9891 4.08139 13.5615 5.03871 11.5042 6.57068C9.44702 8.10266 7.83423 10.1542 6.83121 12.5149L3.98145 19.2196L6.58652 19.9262L9.99527 12.5149C10.7907 10.6429 11.9722 8.95979 13.4625 7.57551C14.9528 6.19122 16.7183 5.13692 18.6438 4.48147Z" fill="#FFF655"/>
<path d="M11.8146 45.38H14.9787V25.8734C14.9787 24.9408 14.6675 24.035 14.0944 23.2994C13.5212 22.5638 12.7189 22.0406 11.8146 21.8128V45.38Z" fill="#FFF655"/>
<path d="M33.5507 24.1376V19.0793H30.9139V24.1376C30.9139 24.4789 31.0013 24.8147 31.1678 25.1127C31.3344 25.4107 31.5745 25.661 31.8653 25.8398L34.6528 27.5548L35.9712 26.7438L34.502 25.8398C34.2112 25.661 33.9711 25.4107 33.8045 25.1127C33.638 24.8147 33.5506 24.4789 33.5507 24.1376Z" fill="#49BDFF"/>
<path d="M16.6938 29.4345C16.526 29.4345 16.365 29.3678 16.2463 29.2491C16.1277 29.1304 16.061 28.9695 16.061 28.8016V28.0681C16.061 27.9003 16.1277 27.7393 16.2463 27.6206C16.365 27.502 16.526 27.4353 16.6938 27.4353C16.8616 27.4353 17.0226 27.502 17.1413 27.6206C17.2599 27.7393 17.3266 27.9003 17.3266 28.0681V28.8016C17.3266 28.9695 17.2599 29.1304 17.1413 29.2491C17.0226 29.3678 16.8616 29.4345 16.6938 29.4345Z" fill="#F4F8FC"/>
<path d="M16.6938 37.8366C16.526 37.8366 16.365 37.77 16.2463 37.6513C16.1277 37.5326 16.061 37.3717 16.061 37.2038V30.7142C16.061 30.5464 16.1277 30.3854 16.2463 30.2668C16.365 30.1481 16.526 30.0814 16.6938 30.0814C16.8616 30.0814 17.0226 30.1481 17.1413 30.2668C17.2599 30.3854 17.3266 30.5464 17.3266 30.7142V37.2038C17.3266 37.3717 17.2599 37.5326 17.1413 37.6513C17.0226 37.77 16.8616 37.8366 16.6938 37.8366Z" fill="#F4F8FC"/>
</svg>
