<svg width="60" height="60" viewBox="0 0 84 84" fill="none" xmlns="http://www.w3.org/2000/svg">
<path d="M84 42C84 65.1963 65.1963 84 42 84C18.8037 84 0 65.1963 0 42C0 18.8037 18.8037 0 42 0C65.1963 0 84 18.8037 84 42Z" fill="#4A7AFF"/>
<path d="M84 42C84 65.1963 65.1963 84 42 84C18.8037 84 0 65.1963 0 42C0 18.8037 18.8037 0 42 0C65.1963 0 84 18.8037 84 42Z" fill="#4A7AFF"/>
<path d="M84 42C84 39.4365 83.7693 36.9275 83.3297 34.4909L68.7114 19.8721L46.4938 42.7908L18.8826 42.9844L28.3828 52.4853L24.023 52.5372L30.6355 59.1497L27.8144 62.0598L13.7281 59.7662L37.7491 83.7872C39.1469 83.9276 40.5651 84 42 84C65.1963 84 84 65.1963 84 42Z" fill="#0053BF"/>
<path d="M31.5109 64.9771C52.8493 64.9771 64.5182 47.2987 64.5182 31.9698C64.5182 31.4673 64.508 30.9681 64.4849 30.4708C66.7497 28.8327 68.7185 26.7896 70.2719 24.4639C68.193 25.3874 65.9563 26.0097 63.6095 26.2897C66.005 24.8542 67.8437 22.5817 68.7114 19.8727C66.469 21.2019 63.9876 22.1677 61.3453 22.6887C59.2278 20.4341 56.2132 19.0236 52.8775 19.0236C46.4701 19.0236 41.2745 24.2191 41.2745 30.6233C41.2745 31.534 41.3764 32.419 41.5751 33.2688C31.9345 32.7837 23.3847 28.1668 17.6636 21.148C16.6664 22.8624 16.0929 24.8542 16.0929 26.9787C16.0929 31.0033 18.1411 34.5569 21.2551 36.6353C19.3523 36.577 17.5643 36.0534 16.0012 35.1837C15.9987 35.2324 15.9987 35.2811 15.9987 35.3318C15.9987 40.9509 19.9977 45.6414 25.3054 46.7046C24.3312 46.9699 23.3058 47.1129 22.2471 47.1129C21.4999 47.1129 20.7731 47.0385 20.0663 46.9039C21.5435 51.5124 25.8257 54.8667 30.904 54.9616C26.9325 58.073 21.9312 59.927 16.496 59.927C15.5603 59.927 14.6368 59.8738 13.7287 59.7662C18.8627 63.0564 24.9586 64.9771 31.5109 64.9771Z" fill="white"/>
<path d="M70.2719 24.4639C68.193 25.3874 65.9563 26.009 63.6095 26.2897C66.005 24.8542 67.8437 22.581 68.7114 19.8727C66.469 21.2019 63.9876 22.1677 61.3453 22.688C59.2278 20.4341 56.2132 19.0236 52.8775 19.0236C47.8306 19.0236 43.5381 22.2471 41.9417 26.7454V63.4172C56.6201 58.776 64.5182 44.5795 64.5182 31.9698C64.5182 31.4673 64.508 30.9681 64.4849 30.4708C66.7497 28.8327 68.7185 26.7896 70.2719 24.4639Z" fill="#DCE1EB"/>
</svg>
