<svg width="104" height="104" viewBox="0 0 104 104" fill="none" xmlns="http://www.w3.org/2000/svg">
<g clip-path="url(#clip0)">
<path d="M38.1334 66.9397L43.4159 37.2254H51.6699L46.5524 66.9397H38.1334Z" fill="#3C58BF"/>
<path d="M38.1334 66.9397L44.9016 37.2254H51.6699L46.5524 66.9397H38.1334Z" fill="#293688"/>
<path d="M76.4317 37.5556C74.7809 36.8952 72.1397 36.2349 68.8381 36.2349C60.5841 36.2349 54.6413 40.3619 54.6413 46.3048C54.6413 50.7619 58.7682 53.073 62.0698 54.5587C65.3714 56.0444 66.3619 57.0349 66.3619 58.3556C66.3619 60.3365 63.7206 61.327 61.4095 61.327C58.1079 61.327 56.2921 60.8318 53.4857 59.6762L52.3301 59.181L51.1746 65.9492C53.1555 66.7746 56.7873 67.6 60.5841 67.6C69.3333 67.6 75.1111 63.473 75.1111 57.2C75.1111 53.7333 72.9651 51.0921 68.0127 48.946C65.0413 47.4603 63.2254 46.6349 63.2254 45.1492C63.2254 43.8286 64.7111 42.5079 68.0127 42.5079C70.819 42.5079 72.8 43.0032 74.2857 43.6635L75.1111 43.9937L76.4317 37.5556Z" fill="#3C58BF"/>
<path d="M76.4317 37.5556C74.7809 36.8952 72.1397 36.2349 68.8381 36.2349C60.5841 36.2349 56.127 40.3619 56.127 46.3048C56.127 50.7619 58.7682 53.073 62.0698 54.5587C65.3714 56.0444 66.3619 57.0349 66.3619 58.3556C66.3619 60.3365 63.7206 61.327 61.4095 61.327C58.1079 61.327 56.2921 60.8318 53.4857 59.6762L52.3301 59.181L51.1746 65.9492C53.1555 66.7746 56.7873 67.6 60.5841 67.6C69.3333 67.6 75.1111 63.473 75.1111 57.2C75.1111 53.7333 72.9651 51.0921 68.0127 48.946C65.0413 47.4603 63.2254 46.6349 63.2254 45.1492C63.2254 43.8286 64.7111 42.5079 68.0127 42.5079C70.819 42.5079 72.8 43.0032 74.2857 43.6635L75.1111 43.9937L76.4317 37.5556Z" fill="#293688"/>
<path d="M90.6285 37.2254C88.6476 37.2254 87.1619 37.3905 86.3365 39.3714L73.9555 66.9397H82.8698L84.5206 61.9873H95.0857L96.0761 66.9397H104L97.0666 37.2254H90.6285ZM86.8317 57.0349C87.3269 55.5492 90.1333 48.2857 90.1333 48.2857C90.1333 48.2857 90.7936 46.4698 91.2888 45.3143L91.7841 48.1206C91.7841 48.1206 93.4349 55.5492 93.765 57.2H86.8317V57.0349Z" fill="#3C58BF"/>
<path d="M92.6095 37.2254C90.6285 37.2254 89.1428 37.3905 88.3174 39.3714L73.9555 66.9397H82.8698L84.5206 61.9873H95.0857L96.0761 66.9397H104L97.0666 37.2254H92.6095ZM86.8317 57.0349C87.492 55.3841 90.1333 48.2857 90.1333 48.2857C90.1333 48.2857 90.7936 46.4698 91.2888 45.3143L91.7841 48.1206C91.7841 48.1206 93.4349 55.5492 93.765 57.2H86.8317V57.0349Z" fill="#293688"/>
<path d="M22.946 58.0254L22.1206 53.7333C20.6349 48.7809 15.8476 43.3333 10.5651 40.692L17.9936 67.1047H26.9079L40.2794 37.3904H31.3651L22.946 58.0254Z" fill="#3C58BF"/>
<path d="M22.946 58.0254L22.1206 53.7333C20.6349 48.7809 15.8476 43.3333 10.5651 40.692L17.9936 67.1047H26.9079L40.2794 37.3904H33.0159L22.946 58.0254Z" fill="#293688"/>
<path d="M0 37.2254L1.48571 37.5556C12.0508 40.0318 19.3143 46.3048 22.1206 53.7333L19.1492 39.7016C18.654 37.7206 17.1683 37.2254 15.3524 37.2254H0Z" fill="#FFBC00"/>
<path d="M0 37.2254C10.5651 39.7016 19.3143 46.1397 22.1206 53.5683L19.3143 41.8476C18.819 39.8667 17.1683 38.7111 15.3524 38.7111L0 37.2254Z" fill="#F7981D"/>
<path d="M0 37.2254C10.5651 39.7016 19.3143 46.1397 22.1206 53.5683L20.1397 47.1302C19.6444 45.1492 18.9841 43.1683 16.673 42.3429L0 37.2254Z" fill="#ED7C00"/>
<path d="M31.2 57.0349L25.5873 51.4222L22.946 57.6952L22.2857 53.5682C20.8 48.6159 16.0127 43.1682 10.7302 40.527L18.1587 66.9397H27.073L31.2 57.0349Z" fill="#051244"/>
<path d="M46.5524 66.9397L39.454 59.6762L38.1334 66.9397H46.5524Z" fill="#051244"/>
<path d="M65.5365 56.7047C66.1968 57.3651 66.527 57.8603 66.3619 58.5206C66.3619 60.5016 63.7207 61.492 61.4095 61.492C58.108 61.492 56.2921 60.9968 53.4857 59.8413L52.3302 59.346L51.1746 66.1143C53.1556 66.9397 56.7873 67.7651 60.5841 67.7651C65.8667 67.7651 70.1588 66.2793 72.6349 63.6381L65.5365 56.7047Z" fill="#051244"/>
<path d="M75.1111 66.9397H82.8698L84.5206 61.9873H95.0857L96.0762 66.9397H104L101.194 54.8889L91.2889 45.3143L91.7841 47.9555C91.7841 47.9555 93.4349 55.3841 93.7651 57.0349H86.8317C87.492 55.3841 90.1333 48.2857 90.1333 48.2857C90.1333 48.2857 90.7936 46.4698 91.2889 45.3143" fill="#051244"/>
</g>
<defs>
<clipPath id="clip0">
<rect width="104" height="104" fill="white"/>
</clipPath>
</defs>
</svg>
