<svg width="52" height="52" viewBox="0 0 52 52" fill="none" xmlns="http://www.w3.org/2000/svg">
<path d="M44.9064 48.4138H7.17241C3.21104 48.4138 0 45.2028 0 41.2414L1.7931 16.1379H50.2069L52 41.3202C52 45.2378 48.824 48.4138 44.9064 48.4138Z" fill="#FF6AA0"/>
<path d="M11.6552 21.5173H40.3448V28.6897H11.6552V21.5173Z" fill="#F3E7DA"/>
<path d="M36.7586 26H15.2414C14.7463 26 14.3448 25.5986 14.3448 25.1035C14.3448 24.6083 14.7463 24.2069 15.2414 24.2069H36.7586C37.2537 24.2069 37.6552 24.6083 37.6552 25.1035C37.6552 25.5986 37.2537 26 36.7586 26Z" fill="#FB9E55"/>
<path d="M14.3448 44.8276H7.17242C5.19195 44.8276 3.58621 43.2218 3.58621 41.2414V37.6552L14.3448 44.8276Z" fill="#FDDF79"/>
<path d="M37.6552 44.8276H44.8276C46.8081 44.8276 48.4138 43.2218 48.4138 41.2414V37.6552L37.6552 44.8276Z" fill="#FDDF79"/>
<path d="M3.58621 3.58618C2.63931 3.58618 1.79311 4.48273 1.79311 6.27584L2.68966 16.1379H4.48276L5.37931 6.27584C5.37931 4.48273 4.48276 3.58618 3.58621 3.58618Z" fill="#FDDF79"/>
<path d="M36.7586 30.4828H33.1724L34.069 25.1035H35.8621L36.7586 30.4828Z" fill="#FDDF79"/>
</svg>
