<svg width="51" height="51" viewBox="0 0 51 51" fill="none" xmlns="http://www.w3.org/2000/svg">
<g clip-path="url(#clip0)">
<path d="M43.9127 39.0722C43.8872 39.0977 41.3384 41.6506 41.3078 41.6694C42.0189 42.884 42.4267 44.2975 42.4267 45.8055V50.1207C42.4267 50.6065 42.0332 51 41.5474 51H9.45257C8.96675 51 8.57326 50.6065 8.57326 50.1207V45.8055C8.57326 44.2975 8.98104 42.884 9.69218 41.6694C9.66261 41.6514 9.87112 41.8561 7.08722 39.0722C6.05403 38.039 5.95841 36.3969 6.863 35.2505C7.96631 33.8388 7.64581 32.2099 6.65306 31.2738C5.56382 30.2461 5.44291 28.5556 6.37498 27.3839L7.64119 25.7924C8.22483 25.0581 8.41498 24.0843 8.14899 23.1841L7.33123 20.411C6.91246 18.9942 7.63459 17.4895 9.00192 16.93L10.0824 16.4871C11.1639 16.0441 11.8707 14.9911 11.8707 13.8217V10.9914C11.8707 4.92084 16.7915 0 22.862 0H28.1379C34.2081 0 39.1293 4.91952 39.1293 10.9914V13.8217C39.1293 14.9911 39.836 16.0441 40.9176 16.4871L41.998 16.93C43.3654 17.4895 44.0875 18.9942 43.6687 20.411L42.851 23.1841C42.585 24.0843 42.7751 25.0581 43.3588 25.7924L44.625 27.3839C45.5578 28.5585 45.4357 30.245 44.3469 31.2738C43.2598 32.2982 43.1367 33.9831 44.0622 35.1548C45.1137 36.5001 44.8902 38.0947 43.9127 39.0722Z" fill="#FFDFBA"/>
<path d="M7.08724 39.0722C7.11274 39.0977 9.66153 41.6506 9.69219 41.6694C8.98105 42.884 8.57327 44.2975 8.57327 45.8055V50.1207C8.57327 50.6065 8.96676 51 9.45258 51H41.5474C42.0332 51 42.4267 50.6065 42.4267 50.1207V45.8055C42.4267 44.2975 42.0189 42.884 41.3078 41.6694C41.3374 41.6514 41.1289 41.8561 43.9128 39.0722C44.9459 38.039 45.0416 36.3969 44.137 35.2505C43.0337 33.8388 43.3542 32.2099 44.3469 31.2738C45.4362 30.2461 45.5571 28.5556 44.625 27.3839L43.3588 25.7924C42.7751 25.0581 42.585 24.0843 42.851 23.1841L43.6687 20.411C44.0875 18.9942 43.3654 17.4895 41.9981 16.93L40.9176 16.4871C39.836 16.0441 39.1293 14.9911 39.1293 13.8217V10.9914C39.1293 4.92084 34.2085 0 28.1379 0H22.8621C16.7919 0 11.8707 4.91952 11.8707 10.9914V13.8217C11.8707 14.9911 11.1639 16.0441 10.0824 16.4871L9.00194 16.93C7.63461 17.4895 6.91247 18.9942 7.33125 20.411L8.14901 23.1841C8.415 24.0843 8.22485 25.0581 7.6412 25.7924L6.375 27.3839C5.44216 28.5585 5.56427 30.245 6.65308 31.2738C7.74013 32.2982 7.86323 33.9831 6.93776 35.1548C5.88632 36.5001 6.10978 38.0947 7.08724 39.0722Z" fill="#FFDFBA"/>
<path d="M15.3981 19.6565C14.9536 19.7073 14.6185 20.0826 14.6185 20.5299V22.217C14.6185 26.752 17.3938 30.6408 21.3397 32.2741L21.3233 32.3147V33.0654C21.3233 35.565 19.3083 37.58 16.8223 37.6092C13.7368 37.6092 11.1161 39.2376 9.69218 41.6694C9.66151 41.6506 7.11272 39.0977 7.08722 39.0722C6.05403 38.039 5.95841 36.3969 6.863 35.2505C7.96631 33.8388 7.64581 32.2099 6.65306 31.2738C5.56382 30.2461 5.44291 28.5556 6.37498 27.3839L7.64119 25.7924C8.22483 25.0581 8.41498 24.0843 8.14899 23.1841L7.33123 20.411C6.91246 18.9942 7.63459 17.4895 9.00192 16.93L10.0824 16.4871C11.1639 16.0441 11.8707 14.9911 11.8707 13.8217V10.9914C11.8707 4.92106 16.7917 0 22.862 0H28.1379C34.2081 0 39.1293 4.91963 39.1293 10.9914V13.8217C39.1293 14.9911 39.836 16.0441 40.9176 16.4871L41.998 16.93C43.3654 17.4895 44.0875 18.9942 43.6687 20.411L42.851 23.1841C42.585 24.0843 42.7751 25.0581 43.3588 25.7924L44.625 27.3839C45.5577 28.5583 45.4359 30.2449 44.3469 31.2738C43.3317 32.2304 43.0519 33.8622 44.137 35.2505C45.0415 36.3969 44.9459 38.039 43.9127 39.0722C43.8872 39.0977 41.3384 41.6506 41.3078 41.6694C39.8956 39.2577 37.2857 37.6092 34.1777 37.6092C31.6926 37.58 29.6767 35.5662 29.6767 33.0654V32.3147L29.6602 32.2729C33.6061 30.6396 36.3814 26.753 36.3814 22.2169V16.7967C36.3814 16.4272 36.1513 16.0967 35.8037 15.9709C33.8912 15.2793 32.2765 13.9467 31.2384 12.1664C30.9351 11.6464 30.2069 11.5856 29.8137 12.0414C26.1339 16.3066 21.0263 19.0139 15.3981 19.6565Z" fill="#FE4F60"/>
<path d="M35.8038 15.971C36.1513 16.0966 36.3815 16.4271 36.3815 16.7968V22.217C36.3815 26.7531 33.6062 30.6397 29.6603 32.273C22.5228 35.2356 14.6186 29.9724 14.6186 22.2169V20.5298C14.6186 20.0824 14.9537 19.7072 15.3982 19.6564C21.0168 19.0148 26.1276 16.3138 29.8137 12.0415C30.207 11.5857 30.9352 11.6463 31.2384 12.1664C32.2756 13.9453 33.8892 15.2787 35.8038 15.971Z" fill="#FFEBD2"/>
<path d="M42.4267 45.8055V50.1207C42.4267 50.6065 42.0332 51 41.5474 51H9.45258C8.96676 51 8.57327 50.6065 8.57327 50.1207V45.8055C8.57327 41.2824 12.2398 37.6092 16.7695 37.6092C17.4047 37.6092 18.0472 37.4792 18.6579 37.2014L18.6853 37.2608L24.9614 42.1201C25.2791 42.3652 25.7209 42.3652 26.0386 42.1201L32.3147 37.2608L32.3421 37.2014C32.9027 37.4564 33.5237 37.6015 34.1777 37.6092C38.884 37.6092 42.4267 41.3842 42.4267 45.8055Z" fill="#42434D"/>
<path d="M31.9992 0.698172C33.4039 1.22488 33.0013 3.30643 31.5011 3.29763C31.4464 3.2973 26.2141 3.29741 26.1595 3.29741C20.0891 3.29741 15.1681 8.21847 15.1681 14.2888V17.1191C15.1681 18.2886 14.4613 19.3415 13.3798 19.7845L12.2993 20.2274C10.932 20.7869 10.2099 22.2916 10.6286 23.7084L11.4464 26.4815C11.7124 27.3817 11.5222 28.3556 10.9386 29.0898L9.6724 30.6813C8.74033 31.853 8.86123 33.5435 9.95048 34.5712C11.0357 35.5946 11.1616 37.2781 10.2352 38.4522C9.45916 39.4451 9.37464 40.5279 9.76901 41.4561C9.81375 41.5615 9.67921 41.6585 9.5948 41.5756C9.12393 41.1124 7.10987 39.0948 7.08722 39.0723C6.12911 38.1141 5.86883 36.5225 6.93774 35.1549C7.86519 33.9797 7.73725 32.2962 6.65306 31.2739C5.56382 30.2462 5.44291 28.5557 6.37498 27.384L7.64119 25.7925C8.22483 25.0583 8.41498 24.0844 8.14899 23.1842L7.33123 20.411C6.91246 18.9942 7.63459 17.4895 9.00192 16.93L10.0824 16.4871C11.1639 16.0441 11.8707 14.9911 11.8707 13.8217V10.9914C11.8707 4.92106 16.7917 0 22.8621 0H28.1379C29.4853 0 30.7888 0.244338 31.9992 0.698172Z" fill="#FF6D7A"/>
<path d="M23.0237 29.2504C24.8036 30.3773 23.4127 33.105 21.457 32.3217C17.4403 30.713 14.6186 26.7886 14.6186 22.2169V20.5297C14.6186 20.0824 14.9538 19.7076 15.3978 19.657C15.8062 19.61 16.2464 19.5483 16.7132 19.4669C17.332 19.3589 17.9133 19.8038 17.9643 20.4299C18.2957 24.5011 20.2987 27.5251 23.0237 29.2504Z" fill="#FFF3E4"/>
<path d="M20.0917 38.35C20.6528 38.7845 20.3558 39.6947 19.6461 39.6976C14.9708 39.7162 11.431 43.4696 11.431 47.8938V51H9.45258C8.96698 51 8.57327 50.6063 8.57327 50.1207V45.8055C8.57327 41.3584 12.1412 37.6092 16.8223 37.6092C17.4763 37.6015 18.0973 37.4564 18.6579 37.2014L18.6853 37.2608L20.0917 38.35Z" fill="#4D4E59"/>
<path d="M30.9083 38.35C30.3472 38.7845 30.6442 39.6947 31.3539 39.6976C36.0292 39.7162 39.569 43.4696 39.569 47.8938V51H41.5474C42.033 51 42.4268 50.6063 42.4268 50.1207V45.8055C42.4268 41.3584 38.8588 37.6092 34.1777 37.6092C33.5237 37.6015 32.9027 37.4564 32.3422 37.2014L32.3147 37.2608L30.9083 38.35Z" fill="#2C2C33"/>
<path d="M24.9618 42.1198C25.2787 42.3652 25.7214 42.3652 26.0384 42.1198L32.3147 37.2608L32.3422 37.2014C32.9027 37.4564 33.5237 37.6015 34.1777 37.6092L30.3362 51H20.6638L16.8223 37.6092C17.4763 37.6015 18.0973 37.4564 18.6579 37.2014L18.6854 37.2608L24.9618 42.1198Z" fill="#D6F4FC"/>
<path d="M26.3793 41.8563V49.2414C26.3793 49.7273 25.9858 50.1208 25.5 50.1208C25.0142 50.1208 24.6207 49.7273 24.6207 49.2414V41.8563L24.9614 42.1201C25.279 42.3652 25.7209 42.3652 26.0385 42.1201L26.3793 41.8563Z" fill="#BDEFFC"/>
<path d="M18.6431 39.7569C18.315 39.7935 17.9439 39.8573 17.5016 39.9757L16.8223 37.6092C17.4763 37.6015 18.0973 37.4564 18.6579 37.2014L18.6854 37.2608L19.2249 37.6787C20.0516 38.3189 19.6822 39.641 18.6431 39.7569Z" fill="#E8F8FC"/>
<path d="M32.357 39.7569C32.6851 39.7935 33.0561 39.8573 33.4984 39.9757L34.1777 37.6092C33.5237 37.6015 32.9027 37.4564 32.3421 37.2014L32.3147 37.2608L31.7751 37.6787C30.9484 38.3189 31.3179 39.641 32.357 39.7569Z" fill="#BDEFFC"/>
<path d="M29.8009 34.1194C27.093 35.253 24.1171 35.3409 21.1991 34.1194C21.3481 33.5011 21.3233 33.1005 21.3233 32.3147L21.3398 32.274C23.9867 33.3727 27.0081 33.3749 29.6602 32.274L29.6767 32.3147C29.6767 33.1009 29.6519 33.5013 29.8009 34.1194Z" fill="#FFD6A6"/>
</g>
<defs>
<clipPath id="clip0">
<rect width="51" height="51" fill="white"/>
</clipPath>
</defs>
</svg>
